<?xml version="1.0" encoding="UTF-8"?>
<svg width="500px" height="500px" viewBox="0 0 500 500" version="1.1" xmlns="http://www.w3.org/2000/svg" xmlns:xlink="http://www.w3.org/1999/xlink">
    <title>home-action</title>
    <defs>
        <polygon id="path-1" points="0.462644582 0.807122363 67.0970143 0.807122363 67.0970143 36.8920072 0.462644582 36.8920072"></polygon>
        <polygon id="path-3" points="0 0.907394178 391.994335 0.907394178 391.994335 311.028242 0 311.028242"></polygon>
    </defs>
    <g id="home-action" stroke="none" stroke-width="1" fill="none" fill-rule="evenodd">
        <circle id="Oval" fill="#FEF0FA" cx="250" cy="250" r="173"></circle>
        <g id="Group-15" transform="translate(4.000000, 93.000000)">
            <path d="M436.373449,15.4270023 C436.40377,16.9146564 435.782691,18.1597476 434.99534,19.355935 C429.957269,26.9996015 424.952452,34.6657637 419.687467,42.1568504 C415.548248,48.0478041 411.653548,54.1011185 407.654194,60.0869456 C405.829104,62.8177347 403.876863,65.4644093 401.949075,68.1247769 C400.933832,69.5244041 399.757206,70.7851445 398.271508,71.7074705 C396.910026,72.5515504 395.490837,72.7686833 394.06578,71.8825462 C392.626051,70.9856502 392.260251,69.5879791 392.436304,68.0064297 C392.638766,66.1823173 393.385038,64.5411052 394.315189,62.9898762 C396.205811,59.8365581 398.032857,56.6382485 400.0653,53.5788257 C408.727144,40.5440025 416.673036,27.0504614 425.410192,14.0655201 C426.067459,13.0893999 426.661151,12.065354 427.596192,11.3278844 C429.344015,9.94781874 431.287452,9.62211932 433.316961,10.5600945 C435.35625,11.501982 436.33237,13.1940541 436.373449,15.4270023" id="Fill-1" fill="#4D4D4D"></path>
            <g id="Group-5" transform="translate(422.528974, 218.182421)">
                <mask id="mask-2" fill="white">
                    <use xlink:href="#path-1"></use>
                </mask>
                <g id="Clip-4"></g>
                <path d="M61.6325997,36.8920072 C60.2603586,36.7793867 59.1795842,36.3519673 58.1213056,35.82185 C40.5208221,27.0005795 22.9144701,18.190068 5.31594266,9.36292909 C4.27233522,8.83868018 3.21992509,8.28704513 2.28879642,7.59163286 C0.554667087,6.29861595 0.0450893188,4.48721859 0.805054627,2.85969957 C1.56110763,1.23902709 3.2688289,0.483952168 5.38147377,0.936801509 C6.21381673,1.11578948 7.03051047,1.43170813 7.80905922,1.78381561 C20.0535968,7.31777148 32.5142892,12.3705138 44.6434138,18.1607257 C50.4287353,20.9218352 56.370549,23.3200783 62.2223797,25.9286079 C63.5124624,26.5037168 64.7917862,27.070023 65.7424764,28.1791615 C67.2086128,29.889817 67.5284438,32.1560199 66.4867925,34.0779399 C65.4099304,36.0624567 63.662108,36.9045805 61.6325997,36.8920072" id="Fill-3" fill="#4D4D4D" mask="url(#mask-2)"></path>
            </g>
            <path d="M480.716398,122.311868 C481.45289,122.363706 482.326312,122.33632 483.160611,122.502593 C485.248804,122.920232 486.73548,124.509606 486.972174,126.446197 C487.216693,128.460056 486.233727,130.268519 484.331368,131.261267 C483.351336,131.771823 482.284254,132.026122 481.211305,132.250102 C476.994818,133.131349 472.720624,133.584198 468.439584,133.99499 C457.935044,135.005343 447.465715,136.32868 436.992474,137.613872 C434.12182,137.96598 431.251166,138.312219 428.374643,138.622269 C426.895792,138.780718 425.405204,138.846249 423.963519,138.343517 C422.504229,137.834918 421.581903,136.829455 421.416608,135.28116 C421.262072,133.829695 421.92912,132.698061 423.101834,131.886258 C424.015357,131.25442 425.07657,130.967844 426.150498,130.722347 C430.500981,129.727643 434.939492,129.270881 439.338879,128.584272 C449.764195,126.957731 460.205159,125.436822 470.588418,123.540332 C473.89236,122.936859 477.230534,122.50944 480.716398,122.311868" id="Fill-6" fill="#4D4D4D"></path>
            <g id="Group-10" transform="translate(0.000000, 0.071400)">
                <mask id="mask-4" fill="white">
                    <use xlink:href="#path-3"></use>
                </mask>
                <g id="Clip-9"></g>
                <path d="M381.082501,300.37262 C375.413571,300.517376 369.907979,301.692045 364.38576,302.778688 C362.10782,303.226647 359.877806,303.150357 357.658551,302.505805 C356.528873,302.178149 355.805096,301.561961 355.537103,300.298287 C352.634173,286.60424 348.885206,273.108743 345.879578,259.43817 C342.083663,242.174144 337.306739,225.146814 333.407148,207.911153 C327.22864,180.603261 320.617822,153.399046 313.572738,126.30731 C306.978548,100.958506 300.29633,75.6321974 293.809728,50.2540509 C292.029629,43.2862351 290.492093,36.2568005 288.835232,29.2567082 C288.237627,26.7371836 287.456144,24.2606943 286.235505,21.9876449 C285.674089,20.9420813 285.86677,20.4882539 286.726499,19.9278162 C289.496412,18.1203311 292.469764,16.7539585 295.595696,15.6947018 C300.042031,14.1874862 304.575414,12.9776058 309.088258,11.6914354 C312.685623,10.6654333 316.338738,9.78907695 319.79037,7.8612885 C323.102136,17.2517993 326.101896,26.4535415 329.540813,35.519331 C336.340399,53.4484482 341.7296,71.8313928 346.080083,90.5136288 C351.172927,112.380481 355.179127,134.471313 359.636221,156.469228 C364.917833,182.532028 369.085417,208.805114 374.227164,234.897257 C376.586284,246.868911 378.666652,258.893381 380.510326,270.95404 C381.797475,279.381146 382.810762,287.849331 383.94533,296.298932 C383.975651,296.530736 383.984453,296.766453 384.003037,297.000213 C384.252446,300.022469 384.127253,300.294374 381.082501,300.37262 M336.460703,282.04347 C333.704484,282.109001 331.020642,281.571059 328.321151,281.314803 C319.288617,280.45703 310.262928,279.539594 301.232349,278.658348 C289.165822,277.479766 277.100272,276.30314 265.032766,275.145098 C254.210352,274.105402 243.385003,273.100918 232.562588,272.065135 C218.548711,270.723214 204.535811,269.365644 190.521933,268.014921 C178.455406,266.852966 166.3879,265.69199 154.320394,264.529057 C140.307495,263.178334 126.295573,261.814895 112.281696,260.477865 C98.2678179,259.140835 84.2529622,257.813585 70.2351722,256.515678 C61.1234131,255.671598 52.0067636,254.887181 42.8920703,254.080268 C42.1800308,254.016693 41.4846185,254.054838 41.4494077,253.001449 C41.2674855,247.496836 39.7553795,242.197618 38.8594616,236.804505 C36.6793295,223.672853 32.8452703,210.92265 29.6870618,198.016932 C29.5207888,197.334235 29.2958313,196.663275 29.0562026,196.003073 C28.1729996,193.572554 28.1720216,193.58429 30.5233171,192.287361 C56.4090852,178.003535 81.8918859,163.014515 107.451955,148.163404 C156.616918,119.597706 205.771122,91.0144038 254.939019,62.4535969 C262.716682,57.9348843 270.540314,53.4963739 278.344385,49.0236308 C278.610422,48.8710509 278.894064,48.7478133 279.140539,48.6245757 C279.315615,48.7507475 279.529814,48.8270375 279.539594,48.9238671 C280.27413,56.4296248 282.33298,63.6615212 284.09254,70.9540583 C290.326798,96.8016815 296.522912,122.659085 302.826614,148.490081 C310.354867,179.335674 318.18339,210.104978 326.307292,240.799947 C329.806849,254.02843 332.706846,267.411448 336.382457,280.597873 C336.505694,281.037029 336.670989,281.470317 336.460703,282.04347 M32.2359287,255.592374 C30.0000462,256.683907 27.5861538,256.867785 26.063289,256.928426 C22.5735127,257.116217 22.2967171,257.015475 21.2472412,254.604517 C18.2797576,247.792215 15.6213461,240.845917 13.787453,233.650209 C11.7638131,225.709208 9.41545179,217.827868 8.28088325,209.680493 C7.94735922,207.284206 7.8241216,204.858576 7.55417253,202.45153 C7.419198,201.255343 7.87889387,200.602966 8.99879127,200.14327 C10.8845224,199.368634 12.8240478,198.786678 14.7733539,198.224285 C16.5739924,197.704926 18.3501791,197.199261 19.9561804,196.129245 C21.3235311,195.218656 21.9465657,195.484693 22.6439341,197.088738 C23.1711173,198.300575 23.6092955,199.56914 23.9281484,200.851398 C26.1542501,209.793949 28.4253433,218.726721 30.509624,227.702527 C32.3327583,235.546699 33.2453035,243.557144 34.4483374,251.511839 C34.7808833,253.712511 34.2429413,254.612341 32.2359287,255.592374 M391.9636,295.978123 C391.146906,287.805318 390.439757,279.618819 389.474396,271.46264 C388.1403,260.195201 386.015918,249.047087 384.159529,237.857894 C379.521491,209.920121 374.321059,182.084069 368.779279,154.315504 C364.846434,134.606288 360.057772,115.074103 355.591876,95.476388 C351.779334,78.7493267 346.784298,62.3763289 340.958876,46.2586091 C336.410821,33.6785913 330.649951,21.5856556 325.699907,9.16506425 C325.238255,8.00702187 324.706181,6.86365064 323.921764,5.87090317 C323.627363,5.49923416 323.453266,5.13636785 323.417077,4.61994354 C323.243957,2.1219366 322.340215,1.13505758 319.851988,0.973674986 C317.272801,0.806423934 314.694592,0.91401233 312.203432,1.78450026 C309.173351,2.84375693 306.060134,3.61741531 302.96061,4.43899942 C298.80183,5.54031337 294.645005,6.65825462 290.60555,8.14982102 C286.385151,9.70789661 282.500232,11.8107607 279.300944,15.082426 C276.517339,17.9315624 275.397441,21.2433288 276.107525,25.153678 C276.302162,26.2266277 276.558418,27.3005556 276.906613,28.3343822 C277.705701,30.7042612 278.500877,33.0819647 279.452546,35.392181 C279.926913,36.5443549 279.654029,37.0157877 278.597707,37.5429709 C273.973362,39.8492749 269.580821,42.5702832 265.156004,45.2306508 C258.920767,48.9786393 252.719763,52.7862905 246.459097,56.4912436 C187.420453,91.4320424 128.36127,126.338609 69.3324078,161.297991 C54.1233208,170.305096 38.8936943,179.283836 24.0416052,188.881699 C23.6523308,189.134043 23.3041357,189.490063 22.7965141,189.48126 C19.6207002,189.426488 16.7138574,190.827093 13.6113992,191.177245 C10.8502898,191.489251 8.34543628,192.612083 5.83471435,193.71144 C1.81482063,195.472956 -0.366289586,198.372952 0.050370931,202.167888 C0.0953624422,205.988254 0.695901309,208.986058 1.23384329,211.98484 C2.68628664,220.076466 5.09039826,227.94509 6.91059831,235.951623 C8.11069796,241.229323 9.8653669,246.330969 11.9242176,251.325027 C12.9961892,253.924753 14.0349063,256.551866 15.4726785,258.982386 C16.9622887,261.500933 18.9360468,263.53631 21.9866669,263.87179 C26.5474368,264.371587 31.2744797,264.383324 35.2757899,262.100494 C38.1689397,260.450479 40.7706228,260.43483 43.6980052,261.014829 C44.0814111,261.090141 44.4697074,261.141979 44.8589818,261.184036 C60.7224018,262.904472 76.5838657,264.657185 92.452176,266.331652 C115.011507,268.713268 137.576706,271.039133 160.139948,273.383582 C182.781437,275.737812 205.423904,278.082261 228.065393,280.437469 C248.294946,282.541311 268.521565,284.679386 288.754052,286.755842 C306.261618,288.553546 323.744732,290.61044 341.301202,291.909326 C342.557052,292.002243 343.052937,292.463895 343.269092,293.672797 C343.62609,295.675898 344.318568,297.59684 345.070709,299.491374 C348.692525,308.618782 355.938115,311.87382 364.443466,310.845862 C370.643492,310.095677 376.744732,308.654971 382.96432,307.88229 C389.276824,307.096895 392.015438,303.558215 391.994335,297.150837 C391.994335,296.760584 392.002723,296.36642 391.9636,295.978123" id="Fill-8" fill="#4D4D4D" mask="url(#mask-4)"></path>
            </g>
            <path d="M65.8477174,235.392457 C75.7673675,236.416503 86.0293444,237.48554 96.2932774,238.534038 C111.456395,240.083311 126.565718,242.115753 141.740572,243.576999 C154.500556,244.806441 167.240978,246.232477 179.992159,247.556792 C183.723521,247.94411 187.459772,248.282525 191.194068,248.644413 C191.737878,248.697229 192.297338,248.695273 192.820608,248.830247 C194.629072,249.298746 195.658008,250.803027 195.371432,252.48434 C195.107351,254.034591 193.727285,255.150577 191.962836,255.091892 C190.796969,255.053747 189.635992,254.840526 188.474037,254.697727 C170.011868,252.419787 151.55459,250.091966 133.084597,247.879557 C122.684711,246.634466 112.261352,245.588902 101.850707,244.433794 C89.6531172,243.080137 77.4721546,241.597373 65.3087973,239.967898 C64.535139,239.864222 63.7595244,239.733159 63.0073837,239.530698 C61.267386,239.060243 60.4878591,238.218119 60.6668471,237.097244 C60.8360543,236.035053 61.7006738,235.480483 63.3858993,235.398325 C64.08718,235.364092 64.791395,235.392457 65.8477174,235.392457" id="Fill-11" fill="#4D4D4D"></path>
            <path d="M210.519878,252.984431 C216.332585,253.653435 222.143337,254.33711 227.958979,254.985575 C234.704771,255.737716 241.453498,256.469317 248.204181,257.181356 C248.995444,257.264493 249.754432,257.356432 250.403874,257.846448 C251.384885,258.586852 251.730146,259.84368 251.282187,260.989986 C250.794127,262.234099 249.490351,263.008735 248.033017,262.632176 C245.527186,261.986645 242.959735,261.766578 240.422605,261.350896 C230.492196,259.724355 220.546138,258.192687 210.60497,256.627765 C210.451412,256.603313 210.293942,256.599401 210.141362,256.569081 C208.713371,256.27957 207.957318,255.51178 208.073709,254.475997 C208.194012,253.395223 209.0645,252.836741 210.519878,252.984431" id="Fill-13" fill="#4D4D4D"></path>
        </g>
    </g>
</svg>