<?xml version="1.0" encoding="UTF-8"?>
<svg width="500px" height="500px" viewBox="0 0 500 500" version="1.1" xmlns="http://www.w3.org/2000/svg" xmlns:xlink="http://www.w3.org/1999/xlink">
    <title>home-money</title>
    <defs>
        <polygon id="path-1" points="0 0.9325 8.8007 0.9325 8.8007 49.7655 0 49.7655"></polygon>
        <polygon id="path-3" points="0.385395041 0.526711642 401.819 0.526711642 401.819 309.999855 0.385395041 309.999855"></polygon>
    </defs>
    <g id="home-money" stroke="none" stroke-width="1" fill="none" fill-rule="evenodd">
        <circle id="Oval" fill="#FEF0FA" cx="250" cy="250" r="173"></circle>
        <g id="Group-569" transform="translate(49.000000, 2.000000)">
            <path d="M195.089,51.8632 L195.25,51.9202 L195.372,51.8002 C195.962,51.3142 196.759,51.8012 197.361,51.3742 L197.313,51.3962 C199.057,50.8712 200.812,50.9982 202.57,51.3082 C202.813,51.4652 203.066,51.5002 203.333,51.3772 C204.352,51.8232 205.597,51.2202 206.529,52.0682 C207.778,52.7902 209.193,53.0242 210.545,53.4422 C211.524,53.7452 212.54,53.9832 213.394,54.5712 C214.463,55.3092 215.458,56.2492 215.276,57.6382 C215.085,59.0802 213.999,59.9252 212.621,60.3522 C210.408,59.9612 208.285,59.2432 206.148,58.5752 C204.101,57.1622 201.676,57.4462 199.451,57.4352 C197.355,57.4252 195.205,57.9142 193.092,58.3712 C181.033,60.9802 174.071,71.1722 173.615,82.4882 C173.388,88.1312 175.106,92.9792 178.442,97.3792 C178.554,97.5582 178.652,97.7512 178.74,97.9432 C178.866,98.2042 178.972,98.4802 179.083,98.7492 C179.162,98.9052 179.231,99.0712 179.297,99.2352 C179.399,99.4652 179.497,99.7002 179.627,99.9202 C179.733,100.0532 179.833,100.1882 179.943,100.3192 C180.074,100.4452 180.195,100.5752 180.32,100.7082 C180.387,100.7792 180.445,100.8492 180.512,100.9212 C180.641,101.0792 180.74,101.2492 180.826,101.4352 C180.906,101.6392 180.956,101.8452 180.991,102.0602 C181.084,103.1072 181.085,104.1292 180.468,105.0552 C178.829,107.5142 176.57,107.5012 174.176,105.0112 C174.033,104.8572 173.887,104.7012 173.738,104.5522 C173.592,104.4122 173.454,104.2602 173.323,104.1042 C173.195,103.9522 173.086,103.7842 172.989,103.6102 C172.847,103.3532 172.733,103.0802 172.568,102.8312 C172.458,102.6582 172.369,102.4772 172.292,102.2882 C172.085,101.9072 171.756,101.6152 171.541,101.2362 C171.443,101.0162 171.368,100.7932 171.308,100.5602 C168.716,92.2822 168.604,83.9722 170.73,75.5672 C171.636,71.9862 173.516,68.8282 174.766,65.3952 C175.759,62.6672 177.975,60.4852 180.547,58.8702 C182.238,57.8092 183.781,56.5492 185.266,55.2182 C185.458,55.0512 185.66,54.8962 185.87,54.7522 L185.811,54.7822 C186.539,54.2232 187.432,54.0792 188.276,53.8112 L188.219,53.8462 C189.261,53.2162 190.488,53.1972 191.607,52.8192 L191.559,52.8442 C192.07,52.1912 192.939,52.8202 193.489,52.3062 L193.464,52.3162 C193.923,51.8692 194.585,52.1522 195.089,51.8632" id="Fill-1" fill="#4D4D4D"></path>
            <path d="M19.2657,232.6522 C22.0787,234.3192 24.8277,236.0822 27.8257,237.4342 C34.6347,240.5072 41.7377,241.5332 49.1357,240.7352 C52.4757,240.3742 55.8077,239.9652 59.0757,239.1492 C59.3897,239.0702 59.7007,239.0272 60.0017,239.2702 C60.0307,240.1722 59.5137,240.9162 59.1837,241.7112 C51.3927,260.4812 48.7977,280.0652 50.2657,300.2212 C51.5767,318.2122 57.0077,334.9862 65.7987,350.7042 C66.3407,351.6722 67.0627,352.5562 67.3177,353.6732 C66.0147,353.1232 65.5977,351.8372 65.0267,350.7452 C61.1097,343.2482 57.4327,335.6512 55.0217,327.4952 C52.9937,320.6322 51.3997,313.7042 50.3137,306.6132 C48.9857,297.9472 49.1677,289.2462 49.5867,280.6082 C50.1537,268.9212 52.5727,257.4762 56.6537,246.4452 C57.2877,244.7292 57.9637,243.0272 58.6047,241.3122 C59.0317,240.1702 58.7667,239.8192 57.5927,240.0612 C55.8847,240.4132 54.1557,240.6622 52.4547,240.9952 C49.7767,241.5192 47.0727,241.2722 44.3907,241.6532 C42.7267,241.8892 40.9057,241.5782 39.2027,241.3242 C32.5937,240.3372 26.4027,238.1672 20.8597,234.3282 C20.1967,233.8692 19.4807,233.5142 19.2657,232.6522" id="Fill-3" fill="#4D4D4D"></path>
            <path d="M266.8477,149.3661 C262.6677,148.3071 258.5117,147.1481 254.3057,146.2071 C237.2827,142.4001 220.0657,140.6141 202.6167,141.5511 C190.7277,142.1891 179.1967,144.7881 167.7877,148.0401 C165.6417,148.6521 163.5657,149.5201 161.3397,149.8521 C161.7577,149.0051 162.6597,149.0211 163.3767,148.8001 C172.0247,146.1211 180.7467,143.7841 189.7307,142.4551 C193.8907,141.8401 198.0507,141.3961 202.2307,140.9721 C207.2587,140.4611 212.2717,140.5141 217.2627,140.7101 C220.4007,140.8341 223.5937,140.8501 226.7367,141.4501 C228.5087,141.7881 230.3627,141.8111 232.1747,141.9761 C236.1247,142.3371 240.0517,142.8131 243.9517,143.5091 C249.2597,144.4561 254.5407,145.5411 259.7677,146.8641 C261.8447,147.3901 263.8787,148.0901 265.9367,148.6961 C266.3327,148.8131 266.6937,148.9381 266.8477,149.3661" id="Fill-5" fill="#4D4D4D"></path>
            <path d="M29.3849,185.3627 C28.9389,185.8447 28.5369,185.6047 28.1569,185.2747 C27.6149,184.8037 27.1179,184.2767 26.5439,183.8517 C24.2869,182.1817 21.4039,182.2437 19.4909,183.9677 C17.6219,185.6517 17.2249,188.3397 18.4859,190.7657 C20.8919,195.4007 26.6819,197.9207 31.7369,196.5327 C38.6009,194.6497 43.2189,188.0437 42.5829,180.9677 C42.0419,174.9517 39.6489,169.9217 34.6629,166.2937 C34.4139,166.1117 34.2209,165.8537 34.0009,165.6307 C35.3859,165.7157 36.3039,166.6487 37.2139,167.5077 C40.2139,170.3387 41.9609,173.8617 42.7039,177.8917 C43.1519,180.3197 43.3249,182.6987 42.8859,185.2167 C41.7009,192.0087 37.4119,195.6037 31.1269,197.2357 C25.5889,198.6727 18.8679,194.9127 17.2309,189.4877 C16.0339,185.5227 19.0179,182.0217 22.5819,181.9017 C24.4749,181.8367 26.1899,182.4267 27.5949,183.7777 C28.1689,184.3297 28.7859,184.8357 29.3849,185.3627" id="Fill-7" fill="#4D4D4D"></path>
            <path d="M352.7657,163.7968 C347.8657,162.3048 342.9737,162.7968 338.0857,163.8588 C329.5037,165.7218 320.9517,167.7328 312.2727,169.1198 C310.3047,169.4338 308.3077,169.5678 306.3257,169.7918 C305.2027,169.9188 304.3747,169.6028 303.6987,168.5878 C302.3527,166.5688 300.1767,165.3868 298.4907,163.7018 C299.9937,163.9228 301.2267,164.7698 302.0007,165.9348 C304.1777,169.2118 307.3917,169.3018 310.6717,168.8518 C314.2717,168.3568 317.8337,167.5738 321.3957,166.8308 C327.6677,165.5218 333.9017,164.0078 340.2017,162.8568 C343.6807,162.2208 347.2507,161.6088 350.8127,162.6528 C351.5787,162.8778 352.3927,162.9368 352.7657,163.7968" id="Fill-9" fill="#4D4D4D"></path>
            <g id="Group-13" transform="translate(0.000000, 172.354000)">
                <mask id="mask-2" fill="white">
                    <use xlink:href="#path-1"></use>
                </mask>
                <g id="Clip-12"></g>
                <path d="M8.2677,0.9325 C8.1817,1.1525 8.1357,1.4015 8.0027,1.5895 C3.3927,8.1325 1.3697,15.5725 0.7397,23.4055 C0.2437,29.5815 1.7587,35.4635 4.1137,41.1495 C5.3717,44.1915 7.2087,46.9095 8.8007,49.7655 C7.1947,49.4135 7.0097,47.8415 6.3107,46.7585 C3.3407,42.1585 1.5747,37.0555 0.5427,31.7215 C-0.5903,25.8525 0.1817,20.0785 1.6517,14.3265 C2.7247,10.1285 4.2597,6.1805 6.6077,2.5395 C7.0447,1.8605 7.4217,1.1685 8.2677,0.9325" id="Fill-11" fill="#4D4D4D" mask="url(#mask-2)"></path>
            </g>
            <path d="M69.7286,220.3393 C69.1816,221.9363 68.1116,223.2513 67.3596,224.7383 C67.1346,225.1823 66.8046,225.4903 66.2906,225.6043 C61.4706,226.6683 56.8886,228.6643 51.9446,229.2393 C48.9366,229.5883 45.9326,230.0413 42.8936,229.8723 C37.3676,229.5663 32.3066,227.8693 27.7756,224.6573 C30.2996,225.1933 32.3526,226.8433 34.7936,227.6003 C38.8366,228.8533 42.8186,229.6963 47.1766,229.1023 C50.5546,228.6413 53.9586,228.3893 57.2656,227.5173 C60.1096,226.7683 62.9086,225.8513 65.7536,225.1103 C66.6096,224.8873 66.8526,224.2863 67.1966,223.6723 C67.8846,222.4433 68.3816,221.0683 69.7286,220.3393" id="Fill-14" fill="#4D4D4D"></path>
            <path d="M17.1993,214.1566 C13.3033,208.6196 11.3383,202.4736 11.9053,195.7126 C12.3713,190.1686 13.8463,184.8716 17.1543,180.2496 C17.6113,179.6106 17.9453,178.8556 18.6853,178.4536 C18.8273,179.3746 18.1073,179.9216 17.6903,180.5566 C13.7533,186.5546 11.9573,193.1326 12.5383,200.2686 C12.8033,203.5196 13.8133,206.6276 15.2793,209.5826 C16.0123,211.0586 17.0953,212.4096 17.1993,214.1566" id="Fill-16" fill="#4D4D4D"></path>
            <path d="M157.0743,151.2484 C156.5423,151.7884 155.8003,151.8704 155.1373,152.1044 C147.9123,154.6584 140.8803,157.6554 134.0953,161.2234 C133.6073,161.4794 133.0773,161.6534 132.5663,161.8654 C132.6513,161.1084 133.2603,160.8684 133.8263,160.5784 C140.7403,157.0394 147.8253,153.9074 155.2253,151.5144 C155.8413,151.3154 156.4243,151.1104 157.0743,151.2484" id="Fill-18" fill="#4D4D4D"></path>
            <path d="M318.1231,408.8148 C319.2871,407.3028 320.8371,406.1838 322.1671,404.8388 C325.7781,401.1898 329.4051,397.5558 333.0261,393.9158 C333.2481,394.8818 332.5221,395.3638 331.9731,395.9148 C328.0291,399.8708 324.0791,403.8208 320.1231,407.7648 C319.5721,408.3148 319.0911,409.0398 318.1231,408.8148" id="Fill-20" fill="#4D4D4D"></path>
            <path d="M206.9395,115.2084 C205.3055,116.3834 203.3025,116.3754 201.4885,116.5174 C196.1775,116.9294 190.8775,116.6604 185.8355,114.6304 C184.7505,114.1934 183.5565,113.8784 182.8515,112.7984 C182.9605,112.7184 183.0685,112.6384 183.1755,112.5574 C184.0155,112.3404 184.7215,112.7524 185.4485,113.0494 C191.1635,115.3854 197.0595,116.0374 203.1565,115.0364 C204.3025,114.8484 205.4725,114.3814 206.6575,114.9184 C206.7525,115.0144 206.8455,115.1114 206.9395,115.2084" id="Fill-22" fill="#4D4D4D"></path>
            <path d="M34.046,165.664 C31.95,164.715 29.96,163.518 27.626,163.152 C23.43,162.496 19.527,163.133 16.002,165.616 C15.683,165.84 15.311,165.991 14.963,166.176 C15.545,164.393 17.275,164.072 18.664,163.495 C23.65,161.426 28.514,161.864 33.166,164.611 C33.592,164.862 33.943,165.153 34.046,165.664" id="Fill-24" fill="#4D4D4D"></path>
            <path d="M298.5313,163.7333 C292.7203,159.9763 286.4013,157.1893 280.2193,154.1433 C282.0463,153.8193 283.4263,155.0503 284.8873,155.7043 C289.0263,157.5553 293.1403,159.5043 296.9153,162.0703 C297.5833,162.5253 298.2873,162.8903 298.5313,163.7333" id="Fill-26" fill="#4D4D4D"></path>
            <path d="M98.5245,185.8109 C96.6465,187.6329 94.7425,189.4289 92.8985,191.2849 C90.2695,193.9309 87.6845,196.6209 85.0805,199.2919 C84.8725,198.4479 85.4445,197.9729 85.9475,197.4689 C89.5325,193.8809 93.1195,190.2949 96.7065,186.7089 C97.2105,186.2069 97.6825,185.6339 98.5245,185.8109" id="Fill-28" fill="#4D4D4D"></path>
            <path d="M275.0128,54.1674 C276.3498,53.1324 277.9378,52.5764 279.4308,51.8374 C281.2878,50.9174 283.0248,51.4054 284.6748,52.3134 C287.5168,53.8794 287.9388,57.5144 285.6228,59.9924 C285.5518,59.8994 285.4808,59.8064 285.4088,59.7134 C285.2888,59.3154 285.3358,58.9214 285.4808,58.5464 C286.1288,56.8534 286.1468,55.2574 284.6668,53.9664 C283.0338,52.5414 281.1668,52.7184 279.2658,53.2884 C277.9368,53.6874 276.8458,54.9304 275.2598,54.4194 C275.1768,54.3354 275.0948,54.2514 275.0128,54.1674" id="Fill-30" fill="#4D4D4D"></path>
            <path d="M171.8976,18.1557 C174.8686,21.5177 173.8606,25.5767 169.7866,26.6577 C167.7416,27.1997 165.6546,26.1187 164.6216,23.9817 C164.7246,23.9367 164.8276,23.8917 164.9306,23.8467 C165.6886,23.9107 166.1966,24.4827 166.8356,24.7907 C168.2256,25.4627 169.6286,25.5327 170.9026,24.5907 C172.2146,23.6177 172.3556,22.2097 172.0696,20.7097 C171.9236,19.9427 171.3926,19.2417 171.6666,18.4017 C171.7426,18.3197 171.8196,18.2377 171.8976,18.1557" id="Fill-32" fill="#4D4D4D"></path>
            <path d="M8.7628,222.0736 C11.9248,225.9626 15.4888,229.4536 19.3108,232.6876 C17.8168,232.6376 16.8968,231.4976 15.9768,230.6366 C13.6118,228.4206 11.1748,226.2486 9.2838,223.5696 C8.9498,223.0986 8.6128,222.6866 8.7628,222.0736" id="Fill-34" fill="#4D4D4D"></path>
            <path d="M108.5997,409.7553 C111.7727,413.3513 114.8617,417.0153 117.7547,420.8413 C116.6527,420.6003 116.0607,419.6773 115.4167,418.9213 C113.2727,416.4033 111.2297,413.7993 109.1277,411.2453 C108.7577,410.7963 108.4537,410.3673 108.5997,409.7553" id="Fill-36" fill="#4D4D4D"></path>
            <path d="M68.712,356.0399 C71.125,359.7319 73.539,363.4239 75.953,367.1159 C74.449,366.5739 74.155,365.0039 73.252,363.9529 C71.804,362.2669 70.849,360.2599 69.608,358.4389 C69.134,357.7449 68.629,356.9799 68.712,356.0399" id="Fill-38" fill="#4D4D4D"></path>
            <path d="M27.4493,175.0224 C30.4943,176.5004 31.3843,179.2304 31.4683,182.2924 C31.5073,183.6714 30.9473,184.9544 29.3593,185.3754 C31.5413,181.8244 31.2793,179.5104 28.3393,176.3694 C27.9663,175.9704 27.5023,175.6324 27.4493,175.0224" id="Fill-40" fill="#4D4D4D"></path>
            <path d="M139.2218,59.9325 C140.3958,61.7675 140.4508,62.8495 139.4408,64.2235 C138.4278,65.5985 136.3638,66.1655 134.5158,65.4975 C133.6398,65.1805 132.8148,64.7205 131.9668,64.3255 C132.0388,64.2405 132.1108,64.1565 132.1818,64.0705 C132.9718,63.6395 133.7178,63.9415 134.4918,64.1685 C137.5128,65.0525 138.7568,64.0925 138.8258,60.8635 C138.8308,60.6225 138.8878,60.3905 138.9878,60.1695 C139.0648,60.0905 139.1438,60.0115 139.2218,59.9325" id="Fill-42" fill="#4D4D4D"></path>
            <path d="M277.881,153.2094 C274.152,152.0124 270.433,150.7804 266.792,149.3284 C267.418,149.2444 268.036,149.1974 268.653,149.4194 C271.455,150.4274 274.262,151.4204 277.064,152.4284 C277.44,152.5634 277.758,152.7924 277.881,153.2094" id="Fill-44" fill="#4D4D4D"></path>
            <path d="M117.7169,420.7963 C119.9639,423.0443 122.2109,425.2913 124.4579,427.5383 C123.9559,427.6373 123.5139,427.5233 123.1489,427.1583 C121.4629,425.4753 119.7799,423.7913 118.0969,422.1073 C117.7319,421.7413 117.6169,421.2983 117.7169,420.7963" id="Fill-46" fill="#4D4D4D"></path>
            <path d="M228.5157,22.0526 C228.3797,23.7916 227.6007,25.2236 226.3097,26.3446 C224.7407,27.7096 222.8197,27.6826 221.2617,26.3726 C221.3487,26.3016 221.4347,26.2296 221.5217,26.1576 C224.2607,26.5836 226.1347,25.4896 227.2127,22.9496 C227.3987,22.5126 227.7027,22.1246 228.1927,21.9546 C228.2997,21.9866 228.4087,22.0196 228.5157,22.0526" id="Fill-48" fill="#4D4D4D"></path>
            <path d="M232.2794,0.869 C234.5394,0.136 236.5204,1.045 236.9884,3.228 C237.3144,4.753 237.4674,6.376 236.2194,7.69 C236.1364,7.615 236.0534,7.54 235.9684,7.465 C235.8284,7.178 235.7744,6.875 235.7974,6.556 C236.0604,2.797 235.9404,2.602 232.4794,1.14 C232.4124,1.051 232.3454,0.96 232.2794,0.869" id="Fill-50" fill="#4D4D4D"></path>
            <path d="M155.0089,0.8842 C157.0729,-0.3668 158.6919,-0.3178 160.3399,1.2092 C161.1229,1.9352 162.1539,2.5402 162.2819,3.7852 C162.1799,3.8302 162.0769,3.8752 161.9749,3.9202 C161.5629,3.8782 161.1659,3.7242 160.9229,3.4152 C159.4609,1.5532 157.4839,1.0162 155.2369,1.1332 C155.1599,1.0512 155.0849,0.9672 155.0089,0.8842" id="Fill-52" fill="#4D4D4D"></path>
            <path d="M225.1124,11.4789 C225.7934,8.6129 227.1324,6.0719 228.9294,3.7579 C229.0074,3.8439 229.0854,3.9289 229.1634,4.0149 C228.6624,6.8939 227.3474,9.3729 225.4494,11.5639 C225.3374,11.5369 225.2244,11.5079 225.1124,11.4789" id="Fill-54" fill="#4D4D4D"></path>
            <path d="M122.8946,53.704 C125.7426,54.332 128.5276,55.138 131.1046,56.547 C131.0206,56.636 130.9366,56.725 130.8526,56.814 C127.8896,56.736 125.1686,55.95 122.8236,54.064 C122.8466,53.944 122.8716,53.824 122.8946,53.704" id="Fill-56" fill="#4D4D4D"></path>
            <path d="M229.9747,70.476 C231.5007,73.172 232.3547,76.051 232.3407,79.166 C232.2167,79.179 232.0927,79.191 231.9687,79.204 C230.7307,76.513 229.8157,73.736 229.7087,70.742 C229.7967,70.653 229.8857,70.565 229.9747,70.476" id="Fill-58" fill="#4D4D4D"></path>
            <path d="M132.6143,161.8271 C130.4653,163.3041 128.2053,164.5891 125.8503,165.7091 C126.1833,164.3011 127.6323,164.2571 128.5513,163.5961 C129.7463,162.7361 131.0353,161.8931 132.6143,161.8271" id="Fill-60" fill="#4D4D4D"></path>
            <path d="M221.7218,18.6435 C222.3078,15.9975 223.6988,13.7325 225.1128,11.4785 C225.1128,11.4785 225.2428,11.5735 225.2428,11.5735 C225.4488,14.5315 223.8258,16.6815 222.0608,18.7685 C221.9488,18.7265 221.8348,18.6855 221.7218,18.6435" id="Fill-62" fill="#4D4D4D"></path>
            <path d="M15.0089,166.1381 C13.2329,167.8971 11.4559,169.6561 9.6799,171.4141 C9.6179,170.9231 9.7419,170.4911 10.0969,170.1361 C11.3049,168.9281 12.5129,167.7181 13.7239,166.5131 C14.0819,166.1561 14.5189,166.0491 15.0089,166.1381" id="Fill-64" fill="#4D4D4D"></path>
            <path d="M166.5636,82.0463 C166.5256,79.3773 166.7076,76.7473 167.9596,74.3113 C168.0536,74.4003 168.1496,74.4903 168.2456,74.5793 C168.5616,77.2033 167.9736,79.6723 166.9556,82.0683 C166.8256,82.0613 166.6946,82.0533 166.5636,82.0463" id="Fill-66" fill="#4D4D4D"></path>
            <path d="M285.1632,60.4535 C283.6312,62.7035 281.2152,62.6535 278.8972,62.8605 C278.8742,62.7465 278.8512,62.6325 278.8262,62.5185 C280.6632,61.2765 282.7682,60.7455 284.8842,60.2415 C284.9762,60.3115 285.0702,60.3825 285.1632,60.4535" id="Fill-68" fill="#4D4D4D"></path>
            <path d="M220.7999,25.9135 C219.0989,23.9345 219.2889,21.2385 221.2799,19.1315 C221.3529,19.2265 221.4239,19.3195 221.4969,19.4135 C221.1589,21.4735 220.8249,23.5345 221.0249,25.6365 C220.9499,25.7285 220.8749,25.8215 220.7999,25.9135" id="Fill-70" fill="#4D4D4D"></path>
            <path d="M306.1612,418.9355 C307.6082,417.4375 309.2282,416.1525 310.9812,415.0315 C309.9302,417.0185 308.1732,418.1345 306.1612,418.9355" id="Fill-72" fill="#4D4D4D"></path>
            <path d="M111.3595,53.7289 C111.3865,52.6349 112.2005,52.1309 113.0445,51.9999 C114.7375,51.7379 116.4795,51.4239 118.1425,52.2309 C118.0655,52.3229 117.9875,52.4149 117.9105,52.5079 C115.8775,53.1199 113.6305,52.7369 111.7025,53.8439 C111.5885,53.8069 111.4735,53.7679 111.3595,53.7289" id="Fill-74" fill="#4D4D4D"></path>
            <path d="M343.0919,381.9804 C344.1889,380.2094 345.4739,378.5884 346.9569,377.1254 C346.2569,379.2124 345.0289,380.8784 343.0919,381.9804" id="Fill-76" fill="#4D4D4D"></path>
            <path d="M91.3165,387.1972 C92.8045,388.6582 94.0805,390.2862 95.1605,392.0702 C93.2445,390.9462 91.9955,389.2962 91.3165,387.1972" id="Fill-78" fill="#4D4D4D"></path>
            <path d="M20.9991,176.0087 C23.3551,173.6587 24.9361,173.4287 27.4921,175.0627 C25.4201,174.4947 23.4441,174.4887 21.6931,175.9927 C21.5581,176.1097 21.2341,176.0087 20.9991,176.0087" id="Fill-80" fill="#4D4D4D"></path>
            <path d="M166.9952,88.8173 C166.5302,86.5803 165.4332,84.3843 166.5622,82.0463 C166.5632,82.0463 166.6382,82.0913 166.6382,82.0913 C167.5422,84.1683 168.0882,86.2833 167.3072,88.5363 C167.2042,88.6303 167.0992,88.7243 166.9952,88.8173" id="Fill-82" fill="#4D4D4D"></path>
            <path d="M206.4073,52.2514 C205.4993,51.5504 204.2573,52.0264 203.3343,51.3774 C205.7763,51.1944 208.0983,51.6454 210.3033,52.7094 C210.2173,52.8034 210.1293,52.8984 210.0423,52.9944 C208.6863,53.4534 207.5653,52.7584 206.4073,52.2514" id="Fill-84" fill="#4D4D4D"></path>
            <path d="M118.5733,60.9364 C116.3853,60.7564 114.3343,60.2444 112.7793,58.5354 C112.8693,58.4634 112.9603,58.3914 113.0503,58.3194 C115.1153,58.5834 116.9793,59.3434 118.6423,60.5974 C118.6203,60.7094 118.5963,60.8234 118.5733,60.9364" id="Fill-86" fill="#4D4D4D"></path>
            <path d="M361.8419,356.5619 C362.7459,354.7899 363.8849,353.1799 365.2229,351.7099 C364.8519,353.8539 363.5339,355.3379 361.8419,356.5619" id="Fill-88" fill="#4D4D4D"></path>
            <path d="M313.797,412.6454 C315.102,411.1834 316.544,409.8774 318.168,408.7774 C317.044,410.4424 316.001,412.2004 313.797,412.6454" id="Fill-90" fill="#4D4D4D"></path>
            <path d="M82.6319,376.1991 C83.9749,377.4861 85.1109,378.9361 86.0559,380.5371 C84.2699,379.6011 83.1579,378.1311 82.6319,376.1991" id="Fill-92" fill="#4D4D4D"></path>
            <path d="M168.4503,95.0473 C167.3863,93.1063 167.0373,90.9973 166.9953,88.8173 L167.1213,88.7123 C168.8683,90.4103 168.9413,92.5533 168.7343,94.7723 C168.6403,94.8643 168.5463,94.9563 168.4503,95.0473" id="Fill-94" fill="#4D4D4D"></path>
            <path d="M278.8976,62.8607 C277.1696,64.0787 275.2236,64.6427 273.1366,64.7807 C273.1176,64.6587 273.0966,64.5357 273.0776,64.4127 C274.7896,63.1327 276.5976,62.1927 278.8386,62.7727 L278.8976,62.8607 Z" id="Fill-96" fill="#4D4D4D"></path>
            <path d="M102.3868,182.4789 C101.2348,183.7769 99.9458,184.9159 98.4798,185.8489 C99.4798,184.3749 100.3468,182.7469 102.3868,182.4789" id="Fill-98" fill="#4D4D4D"></path>
            <path d="M169.0274,13.829 C170.4194,14.983 171.3674,16.431 171.896406,18.156 C171.8974,18.156 171.7754,18.269 171.7754,18.269 C169.8594,17.53 169.0904,15.973 168.7894,14.082 C168.8684,13.997 168.9474,13.913 169.0274,13.829" id="Fill-100" fill="#4D4D4D"></path>
            <path d="M332.9884,393.9594 C333.9374,392.5054 335.0634,391.2044 336.3844,390.0734 C336.0864,392.0974 334.5024,392.9974 332.9884,393.9594" id="Fill-102" fill="#4D4D4D"></path>
            <path d="M214.63,111.8656 C213.267,113.1746 211.651,113.9666 209.776,114.2216 C209.747,114.1126 209.717,114.0026 209.688,113.8926 C210.952,112.5076 212.475,111.6546 214.393,111.6196 C214.472,111.7006 214.551,111.7826 214.63,111.8656" id="Fill-104" fill="#4D4D4D"></path>
            <path d="M236.2198,7.6898 C235.9208,9.5408 235.1328,11.1478 233.8158,12.4878 C233.7378,12.4008 233.6588,12.3128 233.5798,12.2258 C233.7588,10.3218 234.3038,8.6128 236.0828,7.5688 L236.2198,7.6898 Z" id="Fill-106" fill="#4D4D4D"></path>
            <path d="M168.4737,72.9193 C168.7377,71.0463 169.5007,69.4193 170.8457,68.0753 C170.9237,68.1573 171.0007,68.2393 171.0797,68.3213 C171.0147,70.2203 170.1847,71.7483 168.8027,73.0073 C168.6937,72.9793 168.5837,72.9493 168.4737,72.9193" id="Fill-108" fill="#4D4D4D"></path>
            <path d="M153.5743,6.725 C152.3913,4.966 152.4333,3.324 154.0433,1.833 C154.1253,1.925 154.2073,2.018 154.2913,2.11 C154.3833,3.589 154.3533,5.057 153.8533,6.478 C153.7613,6.561 153.6683,6.643 153.5743,6.725" id="Fill-110" fill="#4D4D4D"></path>
            <path d="M127.6944,63.3358 C125.8234,63.2238 124.0274,62.8208 122.3554,61.9448 C122.4364,61.8518 122.5174,61.7578 122.5984,61.6628 C124.5204,61.2818 126.2484,61.6698 127.7464,62.9668 C127.7284,63.0888 127.7124,63.2128 127.6944,63.3358" id="Fill-112" fill="#4D4D4D"></path>
            <path d="M224.6847,103.6605 C224.0717,105.2945 222.9427,106.4155 221.3147,107.0365 C221.2687,106.9345 221.2217,106.8325 221.1747,106.7305 C221.7777,105.1985 222.8477,104.1325 224.3767,103.5235 C224.4797,103.5685 224.5817,103.6145 224.6847,103.6605" id="Fill-114" fill="#4D4D4D"></path>
            <path d="M79.2979,206.4008 C78.5359,207.8508 77.5659,209.1448 76.4019,210.2958 C76.7529,208.5418 77.7399,207.2588 79.2979,206.4008" id="Fill-116" fill="#4D4D4D"></path>
            <path d="M269.7237,56.5541 C271.0607,55.6561 272.4067,54.7761 274.0827,54.6591 C274.1137,54.7711 274.1437,54.8831 274.1747,54.9951 C273.0657,56.2861 271.7507,57.1031 269.9587,56.8131 C269.8797,56.7271 269.8017,56.6401 269.7237,56.5541" id="Fill-118" fill="#4D4D4D"></path>
            <path d="M232.3409,79.1664 C233.1159,81.0974 233.0369,83.0354 232.3899,84.9774 C232.2839,84.8784 232.1789,84.7784 232.0709,84.6804 C231.5049,82.8404 231.2759,81.0104 232.2519,79.2204 L232.3409,79.1664 Z" id="Fill-120" fill="#4D4D4D"></path>
            <path d="M176.6339,107.9955 C175.1539,107.5455 174.1849,106.5845 173.7419,105.0985 C173.8419,105.0515 173.9419,105.0045 174.0409,104.9575 C175.1619,105.6585 176.1669,106.4745 176.7689,107.6915 C176.7249,107.7935 176.6789,107.8945 176.6339,107.9955" id="Fill-122" fill="#4D4D4D"></path>
            <path d="M213.1349,53.704 C214.6959,53.791 215.9869,54.429 217.0149,55.603 C216.9329,55.679 216.8519,55.755 216.7699,55.832 C215.2039,55.893 214.0079,55.192 213.0369,54.024 C213.0699,53.917 213.1029,53.81 213.1349,53.704" id="Fill-124" fill="#4D4D4D"></path>
            <path d="M229.9552,95.0116 C229.8512,96.5606 229.2142,97.8526 228.0712,98.8986 C227.9912,98.8196 227.9112,98.7406 227.8302,98.6626 C227.7522,97.0876 228.4302,95.8746 229.6312,94.9136 C229.7392,94.9466 229.8472,94.9786 229.9552,95.0116" id="Fill-126" fill="#4D4D4D"></path>
            <path d="M76.4366,210.2523 C75.8366,211.5373 75.0386,212.6823 74.0236,213.6753 C74.2886,212.1543 75.0106,210.9553 76.4366,210.2523" id="Fill-128" fill="#4D4D4D"></path>
            <path d="M358.4864,361.3646 C359.0694,360.0696 359.8594,358.9186 360.8874,357.9356 C360.6144,359.4476 359.8854,360.6406 358.4864,361.3646" id="Fill-130" fill="#4D4D4D"></path>
            <path d="M202.5704,51.3085 C200.8174,51.3375 199.0654,51.3675 197.3124,51.3965 C198.8814,50.6525 200.7414,50.6215 202.5704,51.3085" id="Fill-132" fill="#4D4D4D"></path>
            <path d="M355.1104,366.1547 C355.7054,364.8657 356.5044,363.7217 357.5274,362.7357 C357.2474,364.2467 356.5354,365.4527 355.1104,366.1547" id="Fill-134" fill="#4D4D4D"></path>
            <path d="M78.3175,370.434 C79.3625,371.394 80.1705,372.531 80.8015,373.797 C79.2775,373.19 78.6725,371.904 78.3175,370.434" id="Fill-136" fill="#4D4D4D"></path>
            <path d="M267.42,66.7289 C265.972,67.1019 264.607,68.2489 263.005,67.2069 C263.085,67.1119 263.165,67.0169 263.243,66.9199 C264.505,66.3589 265.774,65.8499 267.175,66.4479 C267.257,66.5409 267.339,66.6349 267.42,66.7289" id="Fill-138" fill="#4D4D4D"></path>
            <path d="M338.7608,387.2518 C339.3668,386.1058 340.1868,385.1358 341.1888,384.3178 C341.1518,385.9348 339.9488,386.5878 338.7608,387.2518" id="Fill-140" fill="#4D4D4D"></path>
            <path d="M134.8956,58.0248 C136.3716,58.0088 137.8386,58.0128 138.7656,59.4688 C138.6776,59.5408 138.5896,59.6118 138.5016,59.6838 C137.1206,59.6688 135.8676,59.2958 134.8186,58.3558 C134.8436,58.2458 134.8696,58.1348 134.8956,58.0248" id="Fill-142" fill="#4D4D4D"></path>
            <path d="M233.3136,13.4091 C232.9636,14.6991 232.5126,15.9331 231.4256,16.8151 C231.3466,16.7351 231.2676,16.6561 231.1876,16.5761 C231.1136,15.1081 231.6176,13.9581 232.9986,13.2921 C233.1026,13.3311 233.2086,13.3701 233.3136,13.4091" id="Fill-144" fill="#4D4D4D"></path>
            <path d="M25.8487,223.309 C24.6727,222.733 23.7047,221.912 22.9387,220.852 C24.5357,220.928 25.2177,222.088 25.8487,223.309" id="Fill-146" fill="#4D4D4D"></path>
            <path d="M20.5626,218.476 C19.5076,217.7 18.6776,216.74 18.1396,215.538 C19.3466,216.188 20.4676,216.909 20.5626,218.476" id="Fill-148" fill="#4D4D4D"></path>
            <path d="M336.3458,390.1176 C336.9658,388.9806 337.7898,388.0166 338.7988,387.2066 C338.7308,388.8076 337.5668,389.4876 336.3458,390.1176" id="Fill-150" fill="#4D4D4D"></path>
            <path d="M310.9356,415.0692 C311.7436,414.0582 312.7086,413.2362 313.8396,412.6082 C313.2236,413.8432 312.5376,414.9962 310.9356,415.0692" id="Fill-152" fill="#4D4D4D"></path>
            <path d="M85.1183,199.2475 C84.4903,200.3775 83.6673,201.3435 82.6633,202.1565 C82.7363,200.5585 83.8963,199.8765 85.1183,199.2475" id="Fill-154" fill="#4D4D4D"></path>
            <path d="M266.3643,57.9945 C267.3583,57.2215 268.4293,56.6265 269.7233,56.5545 C269.7233,56.5545 269.8443,56.6925 269.8443,56.6925 C269.2323,58.1725 268.0753,58.5275 266.6143,58.2585 C266.5313,58.1705 266.4473,58.0825 266.3643,57.9945" id="Fill-156" fill="#4D4D4D"></path>
            <path d="M111.8351,57.5976 C110.4341,56.4606 110.6621,55.1226 111.3581,53.7286 C111.3591,53.7286 111.4521,53.7916 111.4521,53.7916 C112.1521,54.8786 112.1721,56.0826 112.0651,57.3106 C111.9891,57.4066 111.9121,57.5016 111.8351,57.5976" id="Fill-158" fill="#4D4D4D"></path>
            <path d="M173.7423,105.0985 C172.6313,104.4525 172.0603,103.4465 171.8223,102.2195 C171.9243,102.1755 172.0253,102.1315 172.1273,102.0875 C172.4743,102.2035 172.6653,102.4465 172.7033,102.8105 L172.6633,102.7575 C173.1313,102.8945 173.0083,103.4125 173.2633,103.6865 L173.2473,103.6615 C173.4583,103.8145 173.6733,103.9655 173.6683,104.2685 L173.6163,104.2145 C174.0963,104.3635 174.0193,104.6745 173.8503,105.0135 L173.7423,105.0985 Z" id="Fill-160" fill="#4D4D4D"></path>
            <path d="M260.6368,62.3656 C260.9028,61.0296 261.7288,60.2446 263.0328,59.9316 C263.0788,60.0316 263.1248,60.1326 263.1718,60.2326 C262.8438,61.3906 262.0888,62.1266 260.9488,62.4826 C260.8448,62.4446 260.7408,62.4056 260.6368,62.3656" id="Fill-162" fill="#4D4D4D"></path>
            <path d="M96.6017,393.914 C97.4447,394.583 98.0907,395.403 98.5037,396.401 C97.5197,395.84 96.4887,395.315 96.6017,393.914" id="Fill-164" fill="#4D4D4D"></path>
            <path d="M86.0196,380.4921 C86.8736,381.1461 87.5326,381.9571 87.9726,382.9401 C86.9376,382.4311 85.9666,381.8701 86.0196,380.4921" id="Fill-166" fill="#4D4D4D"></path>
            <path d="M107.1612,178.6083 C106.5012,179.4553 105.6932,180.1163 104.7132,180.5623 C105.2242,179.5283 105.7852,178.5593 107.1612,178.6083" id="Fill-168" fill="#4D4D4D"></path>
            <path d="M104.7579,180.5253 C104.1139,181.3833 103.3069,182.0453 102.3429,182.5163 C102.7939,181.4233 103.3859,180.5013 104.7579,180.5253" id="Fill-170" fill="#4D4D4D"></path>
            <path d="M299.4054,424.1757 C300.0834,423.3437 300.8994,422.6937 301.8894,422.2707 C301.3314,423.2557 300.8034,424.2837 299.4054,424.1757" id="Fill-172" fill="#4D4D4D"></path>
            <path d="M82.7003,202.1112 C82.2413,203.0812 81.5853,203.8942 80.7343,204.5482 C80.6963,203.1772 81.6513,202.6062 82.7003,202.1112" id="Fill-174" fill="#4D4D4D"></path>
            <path d="M191.6065,52.8192 C190.5575,53.4272 189.3985,53.6692 188.2185,53.8462 C189.1595,52.8802 190.3275,52.6672 191.6065,52.8192" id="Fill-176" fill="#4D4D4D"></path>
            <path d="M341.1505,384.3627 C341.6095,383.3897 342.2695,382.5827 343.1295,381.9357 C343.1615,383.3087 342.2215,383.8897 341.1505,384.3627" id="Fill-178" fill="#4D4D4D"></path>
            <path d="M232.3897,84.9774 C232.1147,86.2434 232.7567,87.6234 231.9097,88.8174 C231.8067,88.7224 231.7037,88.6274 231.5997,88.5334 C231.2157,87.2034 230.6697,85.8434 232.2597,84.8684 L232.3897,84.9774 Z" id="Fill-180" fill="#4D4D4D"></path>
            <path d="M80.7647,373.7518 C81.6007,374.4258 82.2387,375.2528 82.6637,376.2408 C81.6797,375.6788 80.6447,375.1558 80.7647,373.7518" id="Fill-182" fill="#4D4D4D"></path>
            <path d="M263.005,67.2069 C261.702,67.1699 260.826,66.6179 260.636,65.2399 C260.743,65.2019 260.85,65.1649 260.957,65.1259 C261.953,65.4619 262.833,65.9299 263.143,67.0469 L263.005,67.2069 Z" id="Fill-184" fill="#4D4D4D"></path>
            <path d="M87.9356,382.8949 C88.7896,383.5509 89.4386,384.3689 89.8716,385.3559 C88.8526,384.8299 87.8886,384.2609 87.9356,382.8949" id="Fill-186" fill="#4D4D4D"></path>
            <path d="M303.7423,420.8363 C304.4043,419.9893 305.2173,419.3343 306.2043,418.9013 C305.6663,419.9053 305.1173,420.8963 303.7423,420.8363" id="Fill-188" fill="#4D4D4D"></path>
            <path d="M103.8009,403.5145 C104.6399,404.1875 105.2809,405.0095 105.7009,406.0025 C104.7209,405.4385 103.6879,404.9145 103.8009,403.5145" id="Fill-190" fill="#4D4D4D"></path>
            <path d="M19.088,177.9765 C19.515,177.0905 20.161,176.4165 21.041,175.9715 C20.761,177.0005 20.071,177.6315 19.088,177.9765" id="Fill-192" fill="#4D4D4D"></path>
            <path d="M156.9347,12.4838 C156.0427,11.9198 155.7007,11.0318 155.5027,10.0588 C155.6037,10.0158 155.7037,9.9728 155.8037,9.9288 C156.8987,10.3248 157.3027,11.1248 157.1617,12.2448 C157.0857,12.3248 157.0097,12.4038 156.9347,12.4838" id="Fill-194" fill="#4D4D4D"></path>
            <path d="M124.4112,166.5795 C123.7402,167.2955 122.9382,167.8045 122.0022,168.0975 C122.3712,166.9035 123.3452,166.6675 124.4112,166.5795" id="Fill-196" fill="#4D4D4D"></path>
            <path d="M71.2022,217.9647 C70.9022,218.8987 70.4092,219.7117 69.6932,220.3857 C69.7462,219.2987 69.9882,218.3287 71.2022,217.9647" id="Fill-198" fill="#4D4D4D"></path>
            <path d="M67.2843,353.6278 C67.9903,354.3148 68.4713,355.1368 68.7423,356.0838 C67.6273,355.6388 67.3223,354.7118 67.2843,353.6278" id="Fill-200" fill="#4D4D4D"></path>
            <path d="M181.4386,111.829 C180.4826,111.759 179.9586,111.11 179.4986,110.376 C179.5926,110.306 179.6866,110.235 179.7816,110.163 C180.7956,110.046 181.3146,110.593 181.5646,111.498 C181.5236,111.608 181.4806,111.719 181.4386,111.829" id="Fill-202" fill="#4D4D4D"></path>
            <path d="M351.2774,371.4393 C351.5654,370.6353 352.0314,369.9603 352.7324,369.4603 C352.8304,370.5473 352.1854,371.0903 351.2774,371.4393" id="Fill-204" fill="#4D4D4D"></path>
            <path d="M76.9161,368.4799 C77.6101,368.9899 78.0691,369.6689 78.3511,370.4769 C77.4371,370.1249 76.7741,369.5909 76.9161,368.4799" id="Fill-206" fill="#4D4D4D"></path>
            <path d="M352.6964,369.5048 C352.9754,368.6948 353.4524,368.0278 354.1394,367.5128 C354.3024,368.6438 353.6154,369.1578 352.6964,369.5048" id="Fill-208" fill="#4D4D4D"></path>
            <path d="M349.8399,373.3607 C350.1239,372.5517 350.6129,371.8977 351.3109,371.3977 C351.3739,372.4667 350.7429,373.0157 349.8399,373.3607" id="Fill-210" fill="#4D4D4D"></path>
            <path d="M27.8155,224.6864 C26.9805,224.4484 26.3095,223.9774 25.8045,223.2714 C26.9175,223.1144 27.4415,223.7934 27.8155,224.6864" id="Fill-212" fill="#4D4D4D"></path>
            <path d="M348.3878,375.2728 C348.6808,374.4678 349.1728,373.8148 349.8718,373.3198 C349.9268,374.3878 349.3078,374.9448 348.3878,375.2728" id="Fill-214" fill="#4D4D4D"></path>
            <path d="M89.838,385.3129 C90.558,385.7879 91.037,386.4519 91.356,387.2429 C90.398,386.9549 89.774,386.4049 89.838,385.3129" id="Fill-216" fill="#4D4D4D"></path>
            <path d="M179.0294,109.9179 C178.0834,109.8309 177.5544,109.1899 177.0984,108.4569 C177.1934,108.3859 177.2884,108.3149 177.3834,108.2439 C178.4014,108.1289 178.9214,108.6749 179.1644,109.5889 C179.1194,109.6979 179.0744,109.8079 179.0294,109.9179" id="Fill-218" fill="#4D4D4D"></path>
            <path d="M346.919,377.1713 C347.231,376.3783 347.71,375.7133 348.423,375.2303 C348.498,376.3233 347.861,376.8653 346.919,377.1713" id="Fill-220" fill="#4D4D4D"></path>
            <path d="M80.7716,204.5033 C80.4676,205.3023 79.9726,205.9523 79.2666,206.4403 C79.2286,205.3753 79.8306,204.8073 80.7716,204.5033" id="Fill-222" fill="#4D4D4D"></path>
            <path d="M188.2755,53.8114 C187.5315,54.3324 186.7125,54.6614 185.8105,54.7824 C186.4005,53.8704 187.2575,53.6394 188.2755,53.8114" id="Fill-224" fill="#4D4D4D"></path>
            <path d="M109.0558,177.1425 C108.5728,177.8545 107.9098,178.3335 107.1158,178.6455 C107.4158,177.6975 107.9848,177.0955 109.0558,177.1425" id="Fill-226" fill="#4D4D4D"></path>
            <path d="M169.8878,98.8896 C169.2188,98.2126 168.9298,97.3896 168.9528,96.4476 C169.0618,96.4166 169.1698,96.3866 169.2798,96.3566 C170.2028,96.8876 170.4868,97.6576 170.1418,98.6626 C170.0578,98.7386 169.9728,98.8136 169.8878,98.8896" id="Fill-228" fill="#4D4D4D"></path>
            <path d="M280.2735,154.1825 C279.3695,154.0595 278.5395,153.7615 277.8275,153.1735 C278.8495,153.0075 279.7215,153.2065 280.2735,154.1825" id="Fill-230" fill="#4D4D4D"></path>
            <path d="M301.8487,422.3026 C302.3357,421.5966 302.9877,421.1006 303.7877,420.7986 C303.4897,421.7476 302.9197,422.3486 301.8487,422.3026" id="Fill-232" fill="#4D4D4D"></path>
            <path d="M107.13,407.8617 C107.848,408.3397 108.317,409.0127 108.638,409.8007 C107.676,409.5117 107.044,408.9657 107.13,407.8617" id="Fill-234" fill="#4D4D4D"></path>
            <path d="M105.67,405.9613 C106.376,406.4503 106.871,407.1013 107.165,407.9063 C106.232,407.5923 105.623,407.0293 105.67,405.9613" id="Fill-236" fill="#4D4D4D"></path>
            <path d="M260.6358,65.2401 C259.9378,64.2821 259.9378,63.3231 260.6368,62.3651 C260.6368,62.3651 260.7828,62.4711 260.7828,62.4711 C261.3708,63.3641 261.3738,64.2541 260.7718,65.1411 L260.6358,65.2401 Z" id="Fill-238" fill="#4D4D4D"></path>
            <path d="M131.1046,56.5473 C132.0146,56.5933 132.8386,56.8523 133.5006,57.5153 C133.4156,57.6023 133.3316,57.6903 133.2476,57.7773 C132.1766,58.0553 131.3116,57.9213 131.0006,56.6653 L131.1046,56.5473 Z" id="Fill-240" fill="#4D4D4D"></path>
            <path d="M102.3556,401.5995 C103.0566,402.0965 103.5396,402.7585 103.8386,403.5595 C102.8736,403.2635 102.2216,402.7285 102.3556,401.5995" id="Fill-242" fill="#4D4D4D"></path>
            <path d="M110.9698,175.6981 C110.4838,176.4081 109.8058,176.8671 109.0138,177.1751 C109.3568,176.2721 109.9078,175.6471 110.9698,175.6981" id="Fill-244" fill="#4D4D4D"></path>
            <path d="M100.9268,399.6708 C101.6188,400.1778 102.1028,400.8398 102.3938,401.6448 C101.4368,401.3348 100.7698,400.8088 100.9268,399.6708" id="Fill-246" fill="#4D4D4D"></path>
            <path d="M112.9054,174.2729 C112.4004,174.9659 111.7404,175.4499 110.9304,175.7289 C111.2864,174.8339 111.8294,174.1909 112.9054,174.2729" id="Fill-248" fill="#4D4D4D"></path>
            <path d="M226.6017,101.2582 C226.5257,102.2122 225.8807,102.7372 225.1447,103.1952 C225.0747,103.1002 225.0037,103.0062 224.9327,102.9122 C224.8177,101.8962 225.3647,101.3782 226.2707,101.1292 C226.3807,101.1722 226.4917,101.2152 226.6017,101.2582" id="Fill-250" fill="#4D4D4D"></path>
            <path d="M224.6622,61.8539 C225.4032,62.3059 226.0442,62.8329 226.1212,63.7869 C226.0122,63.8289 225.9022,63.8719 225.7922,63.9149 C224.8862,63.6689 224.3412,63.1509 224.4502,62.1379 C224.5202,62.0429 224.5912,61.9489 224.6622,61.8539" id="Fill-252" fill="#4D4D4D"></path>
            <path d="M114.8634,172.8773 C114.3424,173.5603 113.6744,174.0343 112.8614,174.3073 C113.2244,173.4043 113.7324,172.7053 114.8634,172.8773" id="Fill-254" fill="#4D4D4D"></path>
            <path d="M9.7149,171.3715 C9.3969,172.1555 8.9329,172.8305 8.2359,173.3295 C8.1729,172.2565 8.7969,171.7025 9.7149,171.3715" id="Fill-256" fill="#4D4D4D"></path>
            <path d="M98.4718,396.3593 C99.1878,396.8453 99.6408,397.5263 99.9358,398.3263 C99.0448,397.9703 98.4098,397.4253 98.4718,396.3593" id="Fill-258" fill="#4D4D4D"></path>
            <path d="M220.3546,58.0077 C221.3016,58.0947 221.8306,58.7327 222.2826,59.4717 C222.1876,59.5417 222.0926,59.6117 221.9976,59.6827 C220.9816,59.7937 220.4616,59.2487 220.2196,58.3367 C220.2646,58.2267 220.3096,58.1167 220.3546,58.0077" id="Fill-260" fill="#4D4D4D"></path>
            <path d="M95.1251,392.0258 C95.8391,392.5068 96.3321,393.1598 96.6401,393.9588 C95.6751,393.6748 95.0491,393.1258 95.1251,392.0258" id="Fill-262" fill="#4D4D4D"></path>
            <path d="M264.4435,58.9555 C264.8565,58.1805 265.5695,58.0055 266.3645,57.9954946 C266.3645,57.9945 266.4845,58.1325 266.4845,58.1325 C266.2775,59.1475 265.5745,59.3235 264.6905,59.1905 C264.6075,59.1125 264.5255,59.0345 264.4435,58.9555" id="Fill-264" fill="#4D4D4D"></path>
            <path d="M130.089,63.8183 C129.285,63.6863 128.366,64.1213 127.694,63.3363 L127.766,63.2283 C128.612,62.6663 129.413,62.6243 130.136,63.4413 C130.12,63.5673 130.105,63.6923 130.089,63.8183" id="Fill-266" fill="#4D4D4D"></path>
            <path d="M228.5431,67.5917 C229.3201,68.0227 229.5101,68.7337 229.4761,69.5507 C229.3761,69.5867 229.2761,69.6227 229.1761,69.6577 C228.4031,69.2697 228.1121,68.6547 228.3111,67.8117 C228.3881,67.7377 228.4651,67.6647 228.5431,67.5917" id="Fill-268" fill="#4D4D4D"></path>
            <path d="M231.9093,88.8173 C231.7323,89.6123 232.1273,90.5253 231.4183,91.2103 C231.3233,91.1213 231.2273,91.0323 231.1323,90.9433 C230.8343,90.0493 230.5553,89.1593 231.7853,88.7123 L231.9093,88.8173 Z" id="Fill-270" fill="#4D4D4D"></path>
            <path d="M230.3829,1.8725 C230.7549,1.0455 231.4849,0.8955 232.2789,0.8695 C232.2789,0.8695 232.3899,0.9975 232.3899,0.9975 C232.2279,2.0335 231.5079,2.1745 230.6449,2.0855 C230.5579,2.0155 230.4709,1.9435 230.3829,1.8725" id="Fill-272" fill="#4D4D4D"></path>
            <path d="M218.4464,109.4179 C218.1464,110.0179 217.6714,110.3569 216.9924,110.3949 C216.9514,110.2859 216.9104,110.1759 216.8694,110.0669 C217.0584,109.4139 217.4644,109.0849 218.1674,109.2059 C218.2604,109.2759 218.3534,109.3469 218.4464,109.4179" id="Fill-274" fill="#4D4D4D"></path>
            <path d="M216.9923,110.3944 C216.6953,110.9964 216.2173,111.3204 215.5423,111.3474 C215.5023,111.2424 215.4633,111.1374 215.4243,111.0324 C215.6923,110.3024 216.0913,109.8444 216.9313,110.3144 L216.9923,110.3944 Z" id="Fill-276" fill="#4D4D4D"></path>
            <path d="M182.8517,112.7987 C182.1977,112.7427 181.7197,112.4297 181.4387,111.8287 L181.5487,111.6907 C182.4417,111.3857 182.8777,111.7727 182.9947,112.6437 L182.8517,112.7987 Z" id="Fill-278" fill="#4D4D4D"></path>
            <path d="M170.8458,68.0751 C170.9078,67.4251 171.2448,66.9561 171.8008,66.6321 C171.8778,66.7141 171.9558,66.7961 172.0328,66.8771 C172.1648,67.7121 171.8578,68.1881 170.9648,68.1851141 L170.8458,68.0751 Z" id="Fill-280" fill="#4D4D4D"></path>
            <path d="M75.92,367.0722 C76.472,367.4092 76.798,367.9072 76.954,368.5262 C76.128,368.3842 75.841,367.8582 75.92,367.0722" id="Fill-282" fill="#4D4D4D"></path>
            <path d="M263.0333,59.9315 C263.3173,59.3365 263.7973,59.0255 264.4433,58.9555 L264.5523,59.0735 C264.4803,60.0245 264.0493,60.4215 263.0983,60.0165 L263.0333,59.9315 Z" id="Fill-284" fill="#4D4D4D"></path>
            <path d="M354.1017,367.5575 C354.2627,366.9415 354.5887,366.4435 355.1437,366.1115 C355.2207,366.8995 354.9397,367.4295 354.1017,367.5575" id="Fill-286" fill="#4D4D4D"></path>
            <path d="M357.4913,362.7816 C357.6403,362.1606 357.9653,361.6626 358.5163,361.3246 C358.5833,362.0976 358.2873,362.6156 357.4913,362.7816" id="Fill-288" fill="#4D4D4D"></path>
            <path d="M158.8517,15.3651 C158.2767,15.0441 157.9317,14.5731 157.9037,13.8981 C158.0137,13.8591 158.1247,13.8201 158.2357,13.7811 C158.8897,13.9801 159.2187,14.3871 159.0797,15.0961 C159.0037,15.1851 158.9277,15.2751 158.8517,15.3651" id="Fill-290" fill="#4D4D4D"></path>
            <path d="M178.0626,59.4721 C178.3496,58.8691 178.8296,58.5401 179.4906,58.4711 C179.5396,58.5771 179.5876,58.6841 179.6376,58.7911 C179.4646,59.4601 179.0596,59.7931 178.3486,59.6801 C178.2526,59.6111 178.1586,59.5421 178.0626,59.4721" id="Fill-292" fill="#4D4D4D"></path>
            <path d="M220.3614,107.973 C220.0734,108.576 219.5944,108.907 218.9314,108.972 C218.8824,108.865 218.8354,108.758 218.7874,108.651 C218.9624,107.984 219.3674,107.653 220.0774,107.765 C220.1724,107.834 220.2664,107.904 220.3614,107.973" id="Fill-294" fill="#4D4D4D"></path>
            <path d="M120.4845,61.4237 C119.8295,61.3337 119.0755,61.6257 118.5725,60.9367 C118.5735,60.9367 118.6305,60.8477 118.6305,60.8477 C119.3355,60.3417 119.9825,60.3407 120.5485,61.0627 C120.5275,61.1827 120.5055,61.3027 120.4845,61.4237" id="Fill-296" fill="#4D4D4D"></path>
            <path d="M122.3556,61.9447 C121.7246,61.7977 120.9686,62.0967 120.4846,61.4237 L120.5296,61.3537 C121.3266,60.8857 122.0546,60.6917 122.4486,61.8357 L122.3556,61.9447 Z" id="Fill-298" fill="#4D4D4D"></path>
            <path d="M164.6925,7.12 C165.2675,7.441 165.6135,7.912 165.6395,8.587 C165.5295,8.626 165.4195,8.665 165.3085,8.703 C164.6545,8.505 164.3255,8.098 164.4645,7.389 C164.5405,7.3 164.6165,7.21 164.6925,7.12" id="Fill-300" fill="#4D4D4D"></path>
            <path d="M163.7022,5.6933 C164.3052,5.9793 164.6312,6.4583 164.691205,7.1203 C164.6922,7.1203 164.5512,7.2513 164.5512,7.2513 C163.7692,7.2023 163.4322,6.7753 163.4932,6.0083 C163.5622,5.9033 163.6322,5.7983 163.7022,5.6933" id="Fill-302" fill="#4D4D4D"></path>
            <path d="M125.8976,165.6723 C125.5176,166.1963 125.0046,166.5033 124.3696,166.6093 C124.5976,165.8383 125.0996,165.5153 125.8976,165.6723" id="Fill-304" fill="#4D4D4D"></path>
            <path d="M360.8507,357.9818 C360.9967,357.3588 361.3227,356.8608 361.8717,356.5208 C361.9457,357.2968 361.6487,357.8138 360.8507,357.9818" id="Fill-306" fill="#4D4D4D"></path>
            <path d="M122.0489,168.0605 C121.6839,168.5945 121.1729,168.9065 120.5439,169.0335 C120.7399,168.2375 121.2509,167.9265 122.0489,168.0605" id="Fill-308" fill="#4D4D4D"></path>
            <path d="M120.5899,168.9984 C120.2329,169.5394 119.7249,169.8514 119.0979,169.9824 C119.2989,169.2054 119.8079,168.8954 120.5899,168.9984" id="Fill-310" fill="#4D4D4D"></path>
            <path d="M119.1417,169.9496 C118.7907,170.4946 118.2877,170.8126 117.6617,170.9476 C117.8527,170.1666 118.3647,169.8616 119.1417,169.9496" id="Fill-312" fill="#4D4D4D"></path>
            <path d="M117.7061,170.914 C117.3561,171.456 116.8581,171.784 116.2321,171.925 C116.4041,171.122 116.9221,170.824 117.7061,170.914" id="Fill-314" fill="#4D4D4D"></path>
            <path d="M157.9034,13.8979 C157.3044,13.6149 156.9914,13.1369 156.9344,12.4829 C156.9344,12.4839 157.0854,12.3449 157.0854,12.3449 C157.9654,12.4609 158.3584,12.8939 158.0304,13.7959 L157.9034,13.8979 Z" id="Fill-316" fill="#4D4D4D"></path>
            <path d="M116.2794,171.8886 C115.9354,172.4336 115.4374,172.7616 114.8184,172.9156 C114.9514,172.0696 115.4794,171.7846 116.2794,171.8886" id="Fill-318" fill="#4D4D4D"></path>
            <path d="M99.9054,398.2865 C100.4634,398.6115 100.7974,399.1025 100.9654,399.7165 C100.1314,399.5965 99.8514,399.0645 99.9054,398.2865" id="Fill-320" fill="#4D4D4D"></path>
            <path d="M179.9776,58.0272 C180.2786,57.4262 180.7546,57.0872 181.4346,57.0522 C181.4746,57.1612 181.5146,57.2712 181.5546,57.3802 C181.3646,58.0322 180.9596,58.3622 180.2566,58.2392 C180.1636,58.1692 180.0706,58.0982 179.9776,58.0272" id="Fill-322" fill="#4D4D4D"></path>
            <path d="M218.4288,56.5731 C219.1098,56.6081 219.5858,56.9451 219.8848,57.5501 C219.7908,57.6191 219.6988,57.6891 219.6058,57.7591 C218.9048,57.8791 218.4988,57.5521 218.3088,56.9011 C218.3478,56.7921 218.3878,56.6821 218.4288,56.5731" id="Fill-324" fill="#4D4D4D"></path>
            <path d="M155.503,10.0585 C154.898,9.7655 154.573,9.2865 154.55,8.6095 C154.652,8.5705 154.755,8.5305 154.857,8.4915 C155.587,8.7365 156.002,9.1455 155.621,9.9665 L155.503,10.0585 Z" id="Fill-326" fill="#4D4D4D"></path>
            <path d="M171.8224,102.2191 C171.2174,101.9251 170.8934,101.4451 170.8704,100.7691 C170.9704,100.7321 171.0714,100.6961 171.1714,100.6591 C171.5144,100.7561 171.6884,101.0081 171.7884,101.3291 L171.7584,101.2851 C172.1464,101.5041 172.1234,101.8031 171.9254,102.1371 L171.8224,102.2191 Z" id="Fill-328" fill="#4D4D4D"></path>
            <path d="M227.5558,99.8105 C227.5308,100.4855 227.2068,100.9655 226.6018,101.2585 L226.4948,101.1755 C226.0898,100.3485 226.5158,99.9425 227.2468,99.6905 C227.3498,99.7305 227.4528,99.7705 227.5558,99.8105" id="Fill-330" fill="#4D4D4D"></path>
            <path d="M173.2491,64.7313 C173.3051,64.0623 173.6371,63.5833 174.2421,63.2943 C174.3111,63.3883 174.3801,63.4833 174.4491,63.5773 C174.5621,64.2833 174.2331,64.6873 173.5731,64.8673 C173.4651,64.8223 173.3571,64.7763 173.2491,64.7313" id="Fill-332" fill="#4D4D4D"></path>
            <path d="M181.4347,57.0526 C181.7297,56.4486 182.2087,56.1246 182.8847,56.0996 L183.0017,56.4116 C182.7417,57.1426 182.3387,57.5826 181.5057,57.1446 L181.4347,57.0526 Z" id="Fill-334" fill="#4D4D4D"></path>
            <path d="M217.0147,55.6029 C217.6657,55.6639 218.1457,55.9759 218.4287,56.5729 L218.3497,56.6739 C217.4257,57.0489 216.9977,56.6439 216.8857,55.7429 L217.0147,55.6029 Z" id="Fill-336" fill="#4D4D4D"></path>
            <path d="M165.6397,8.5873 C166.2447,8.8783 166.5677,9.3563 166.5977,10.0293 C166.4967,10.0713 166.3967,10.1123 166.2957,10.1553 C165.5617,9.9213 165.1597,9.5093 165.5087,8.6923 L165.6397,8.5873 Z" id="Fill-338" fill="#4D4D4D"></path>
            <path d="M159.8058,16.81 C159.2438,16.49 158.9058,16.021 158.852795,15.365 C158.8518,15.365 158.9938,15.234 158.9938,15.234 C159.8498,15.281 160.1778,15.741 160.0348,16.567 C159.9588,16.648 159.8828,16.729 159.8058,16.81" id="Fill-340" fill="#4D4D4D"></path>
            <path d="M160.7638,18.2514 C160.2038,17.9304 159.8678,17.4614 159.806794,16.8104 C159.8058,16.8104 159.9278,16.6974 159.9278,16.6974 C160.8148,16.7004 161.1248,17.1734 160.9948,18.0054 L160.7638,18.2514 Z" id="Fill-342" fill="#4D4D4D"></path>
            <path d="M161.7315,19.6855 C161.1625,19.3735 160.8315,18.9015 160.764494,18.2505 C160.7635,18.2515 160.8795,18.1435 160.8795,18.1435 C161.7735,18.1295 162.0755,18.6075 161.9585,19.4355 C161.8825,19.5185 161.8065,19.6025 161.7315,19.6855" id="Fill-344" fill="#4D4D4D"></path>
            <path d="M131.9669,64.3251 C131.3289,64.2001 130.5759,64.5021 130.0889,63.8181 L130.1359,63.7441 C130.9269,63.2491 131.6379,63.1321 132.1099,64.1591 L131.9669,64.3251 Z" id="Fill-346" fill="#4D4D4D"></path>
            <path d="M166.5977,10.0292 C167.2047,10.3182 167.5277,10.7962 167.5587,11.4692 C167.4597,11.5112 167.3607,11.5532 167.2617,11.5962 C166.5277,11.3772 166.1417,10.9602 166.4457,10.1542 L166.5977,10.0292 Z" id="Fill-348" fill="#4D4D4D"></path>
            <path d="M74.0616,213.6293 C73.9166,214.2523 73.6006,214.7573 73.0536,215.1063 C72.9496,214.3143 73.2466,213.7953 74.0616,213.6293" id="Fill-350" fill="#4D4D4D"></path>
            <path d="M18.1739,215.5829 C17.6159,215.2439 17.2909,214.7439 17.1609,214.1099 C17.9769,214.2719 18.2719,214.7919 18.1739,215.5829" id="Fill-352" fill="#4D4D4D"></path>
            <path d="M73.0899,215.0605 C72.9559,215.6875 72.6389,216.1925 72.0999,216.5515 C71.9839,215.7575 72.2869,215.2435 73.0899,215.0605" id="Fill-354" fill="#4D4D4D"></path>
            <path d="M193.4893,52.3065 C192.9343,52.8065 192.2463,52.8225 191.5583,52.8445 C192.0203,52.0135 192.8093,52.3545 193.4893,52.3065" id="Fill-356" fill="#4D4D4D"></path>
            <path d="M72.1358,216.5043 C72.0088,217.1323 71.6948,217.6413 71.1648,218.0113 C71.0118,217.2013 71.3198,216.6893 72.1358,216.5043" id="Fill-358" fill="#4D4D4D"></path>
            <path d="M118.1427,52.2313 C118.7917,52.3523 119.5367,52.0983 120.0567,52.7203 C119.9717,52.8103 119.8867,52.9003 119.8017,52.9913 C119.0537,53.2303 118.3237,53.4183 118.0227,52.3723 L118.1427,52.2313 Z" id="Fill-360" fill="#4D4D4D"></path>
            <path d="M167.5587,11.4691 C168.1667,11.7601 168.4907,12.2391 168.5147,12.9151 C168.4147,12.9551 168.3147,12.9951 168.2147,13.0361 C167.4857,12.8091 167.0937,12.3951 167.4127,11.5881 L167.5587,11.4691 Z" id="Fill-362" fill="#4D4D4D"></path>
            <path d="M162.6915,21.1264 C162.1225,20.8114 161.7875,20.3414 161.7315,19.6854 L161.8705,19.5564 C162.7275,19.5964 163.0525,20.0564 162.9175,20.8804 C162.8415,20.9624 162.7665,21.0444 162.6915,21.1264" id="Fill-364" fill="#4D4D4D"></path>
            <path d="M229.9532,19.6488 C229.9402,20.3288 229.5852,20.7948 229.0292,21.1368 C228.9502,21.0498 228.8712,20.9628 228.7912,20.8758 C228.6342,20.1648 228.9642,19.7538 229.6152,19.5438 C229.7272,19.5788 229.8402,19.6138 229.9532,19.6488" id="Fill-366" fill="#4D4D4D"></path>
            <path d="M197.3614,51.3739 C196.7654,51.8299 196.0704,51.8229 195.3724,51.7999 C195.9134,51.0899 196.6674,51.3699 197.3614,51.3739" id="Fill-368" fill="#4D4D4D"></path>
            <path d="M226.1212,63.7865 C226.7242,64.0775 227.0462,64.5545 227.0832,65.2235 C226.9812,65.2665 226.8802,65.3105 226.7782,65.3545 C226.0382,65.1125 225.6182,64.7045 226.0102,63.8745 L226.1212,63.7865 Z" id="Fill-370" fill="#4D4D4D"></path>
            <path d="M162.2823,3.7855 C162.8833,4.0765 163.2053,4.5545 163.2463,5.2205 C163.1443,5.2645 163.0423,5.3075 162.9393,5.3515 C162.1963,5.1065 161.7653,4.7015 162.1813,3.8645 L162.2823,3.7855 Z" id="Fill-372" fill="#4D4D4D"></path>
            <path d="M164.6212,23.9813 C164.0192,23.6883 163.6972,23.2093 163.6622,22.5393 C163.7662,22.4973 163.8692,22.4553 163.9732,22.4123 C164.7102,22.6713 165.1562,23.0733 164.7102,23.9133 L164.6212,23.9813 Z" id="Fill-374" fill="#4D4D4D"></path>
            <path d="M163.6622,22.5395 C163.0652,22.2555 162.7532,21.7765 162.6912,21.1255 C162.6912,21.1265 162.8292,20.9985 162.8292,20.9985 C163.7322,21.1025 164.1292,21.5335 163.7712,22.4545 L163.6622,22.5395 Z" id="Fill-376" fill="#4D4D4D"></path>
            <path d="M171.8009,66.6322 C171.8769,65.9782 172.2009,65.4982 172.7979,65.2092 C172.8669,65.2962 172.9379,65.3832 173.0069,65.4712 C173.0949,66.2882 172.8089,66.7792 171.9059,66.7302 L171.8009,66.6322 Z" id="Fill-378" fill="#4D4D4D"></path>
            <path d="M228.9298,3.7577 C228.9948,3.0977 229.3198,2.6187 229.9218,2.3327 C229.9908,2.4187 230.0588,2.5047 230.1278,2.5907 C230.2338,3.4007 229.9178,3.8637 229.0628,3.8807 L228.9298,3.7577 Z" id="Fill-380" fill="#4D4D4D"></path>
            <path d="M227.0831,65.224 C227.6861,65.52 228.0111,65.999 228.0361,66.674 C227.9321,66.713 227.8271,66.752 227.7231,66.792 C226.9921,66.528 226.5451,66.127 226.9951,65.291 L227.0831,65.224 Z" id="Fill-382" fill="#4D4D4D"></path>
            <path d="M273.1368,64.7812 C272.7848,65.3282 272.2188,65.2272 271.6968,65.2612 C271.6698,65.1522 271.6438,65.0422 271.6168,64.9322 C272.0018,64.3312 272.4918,64.2952 273.0568,64.6662 L273.1368,64.7812 Z" id="Fill-384" fill="#4D4D4D"></path>
            <path d="M271.6964,65.2611 C271.3454,65.8081 270.7784,65.7071 270.2564,65.7411 C270.2294,65.6321 270.2034,65.5231 270.1764,65.4141 C270.5574,64.8121 271.0474,64.7781 271.6124,65.1401 L271.6964,65.2611 Z" id="Fill-386" fill="#4D4D4D"></path>
            <path d="M154.0431,1.8329 C154.1151,1.2619 154.4341,0.9419 155.0101,0.8839 C155.0091,0.8839 155.1371,1.0209 155.1371,1.0209 C155.1271,1.6719 154.8371,2.0199 154.1461,1.9309 L154.0431,1.8329 Z" id="Fill-388" fill="#4D4D4D"></path>
            <path d="M230.9102,92.6059 C230.8872,93.1389 230.9552,93.7009 230.4482,94.0839 C230.3692,94.0129 230.2902,93.9419 230.2112,93.8709 C229.9912,93.3169 230.0052,92.8309 230.6042,92.5149 C230.7062,92.5449 230.8072,92.5759 230.9102,92.6059" id="Fill-390" fill="#4D4D4D"></path>
            <path d="M195.089,51.8632 C194.625,52.2942 194.053,52.3352 193.464,52.3162 C193.866,51.6652 194.495,51.8292 195.089,51.8632" id="Fill-392" fill="#4D4D4D"></path>
            <path d="M120.0567,52.7206 C120.5717,52.7776 121.1267,52.7096 121.5017,53.1926 C121.4237,53.2766 121.3457,53.3606 121.2667,53.4456 C120.6567,53.6466 120.1207,53.6646 119.9127,52.8876 L120.0567,52.7206 Z" id="Fill-394" fill="#4D4D4D"></path>
            <path d="M210.3038,52.7089 C210.8148,52.7789 211.3698,52.7109 211.7438,53.1889 C211.6618,53.2759 211.5798,53.3629 211.4978,53.4499 C210.8868,53.6189 210.2858,53.7639 210.1968,52.8329 L210.3038,52.7089 Z" id="Fill-396" fill="#4D4D4D"></path>
            <path d="M121.502,53.1923 C122.001,53.2683 122.566,53.1643 122.896,53.7033 C122.895,53.7043 122.811,53.8233 122.811,53.8233 C122.166,54.1423 121.61,54.2083 121.385,53.3263 L121.502,53.1923 Z" id="Fill-398" fill="#4D4D4D"></path>
            <path d="M211.7442,53.1889 C212.2422,53.2689 212.8062,53.1659 213.1352,53.7039 C213.1352,53.7039 213.0392,53.8369 213.0392,53.8369 C212.3982,54.1249 211.8062,54.2819 211.6372,53.3119 L211.7442,53.1889 Z" id="Fill-400" fill="#4D4D4D"></path>
            <path d="M168.9532,96.4472 C168.4132,96.1142 168.5162,95.5502 168.4502,95.0472 C168.4502,95.0472 168.6122,94.9072 168.6122,94.9072 C169.4322,95.1812 169.4112,95.7222 169.0722,96.3632 L168.9532,96.4472 Z" id="Fill-402" fill="#4D4D4D"></path>
            <path d="M133.5001,57.5155 C134.0001,57.5885 134.5651,57.4835 134.8961,58.0245 C134.8961,58.0245 134.8241,58.1285 134.8241,58.1285 C134.1781,58.4745 133.6281,58.5235 133.3751,57.6575 L133.5001,57.5155 Z" id="Fill-404" fill="#4D4D4D"></path>
            <path d="M158.5079,150.7636 C158.1109,151.2206 157.5719,151.2776 157.0179,151.2856 C157.3149,150.5416 157.9299,150.7036 158.5079,150.7636" id="Fill-406" fill="#4D4D4D"></path>
            <path d="M159.9503,150.2865 C159.5493,150.7425 159.0093,150.7935 158.4533,150.7965 C158.7603,150.0635 159.3713,150.2225 159.9503,150.2865" id="Fill-408" fill="#4D4D4D"></path>
            <path d="M167.9591,74.3109 C168.0381,73.8129 167.9331,73.2469 168.4741,72.9189 L168.5641,72.9809 C168.9171,73.6309 168.9951,74.1899 168.0871,74.4209 L167.9591,74.3109 Z" id="Fill-410" fill="#4D4D4D"></path>
            <path d="M161.3976,149.8153 C160.9916,150.2663 160.4526,150.3203 159.8946,150.3203 C160.2036,149.5803 160.8156,149.7413 161.3976,149.8153" id="Fill-412" fill="#4D4D4D"></path>
            <path d="M208.3819,114.7328 C208.0079,115.2148 207.4519,115.1478 206.9399,115.2078 C206.9399,115.2088 206.8099,115.0578 206.8099,115.0578 C206.9879,114.2488 207.5329,114.2868 208.1459,114.4778 C208.2249,114.5628 208.3039,114.6478 208.3819,114.7328" id="Fill-414" fill="#4D4D4D"></path>
            <path d="M270.256,65.7411 C269.905,66.2871 269.339,66.1871 268.817,66.2211 C268.79,66.1131 268.763,66.0051 268.735,65.8961 C269.112,65.2931 269.602,65.2611 270.167,65.6141 L270.256,65.7411 Z" id="Fill-416" fill="#4D4D4D"></path>
            <path d="M268.8165,66.2216 C268.4855,66.7606 267.9205,66.6576 267.4205,66.7286 C267.4205,66.7286 267.2925,66.5796 267.2925,66.5796 C267.5455,65.7286 268.0925,65.7706 268.7365,66.1056 L268.8165,66.2216 Z" id="Fill-418" fill="#4D4D4D"></path>
            <path d="M209.7765,114.2221 C209.4455,114.7591 208.8815,114.6581 208.3815,114.7321 C208.3815,114.7331 208.2665,114.5991 208.2665,114.5991 C208.4775,113.7221 209.0355,113.7891 209.6745,114.0831 L209.7765,114.2221 Z" id="Fill-420" fill="#4D4D4D"></path>
            <path d="M231.4181,91.2104 C231.3471,91.7114 231.4521,92.2764 230.9101,92.6064 L230.8201,92.5444 C230.4481,91.8984 230.4151,91.3544 231.2651,91.0784 L231.4181,91.2104 Z" id="Fill-422" fill="#4D4D4D"></path>
            <path d="M233.8155,12.4882 C233.7625,12.8572 233.6755,13.2082 233.3135,13.4092 C233.3135,13.4092 233.1685,13.2982 233.1685,13.2982 C232.9955,12.7982 233.0865,12.4432 233.6805,12.3652 L233.8155,12.4882 Z" id="Fill-424" fill="#4D4D4D"></path>
            <path d="M168.5147,12.9149 C168.8747,13.1139 168.9647,13.4639 169.0277,13.8289 L168.9247,13.9209 C168.2737,13.9199 168.2177,13.5409 168.3637,13.0349 L168.5147,12.9149 Z" id="Fill-426" fill="#4D4D4D"></path>
            <path d="M231.4259,16.8148 C231.3669,17.1868 231.2709,17.5378 230.9389,17.7708 C230.8649,17.6938 230.7919,17.6168 230.7189,17.5398 C230.6429,17.0628 230.7049,16.6878 231.3219,16.7198 L231.4259,16.8148 Z" id="Fill-428" fill="#4D4D4D"></path>
            <path d="M230.9386,17.7704 C230.8856,18.1444 230.7906,18.4974 230.4536,18.7274 C230.3806,18.6514 230.3096,18.5764 230.2376,18.5004 C230.1496,18.0274 230.2316,17.6714 230.8146,17.6574 L230.9386,17.7704 Z" id="Fill-430" fill="#4D4D4D"></path>
            <path d="M230.4532,18.727 C230.4022,19.097 230.3152,19.448 229.9532,19.649 C229.9532,19.649 229.7952,19.527 229.7952,19.527 C229.6352,19.032 229.7322,18.681 230.3122,18.599 L230.4532,18.727 Z" id="Fill-432" fill="#4D4D4D"></path>
            <path d="M229.0294,21.1366 C228.9654,21.5026 228.8774,21.8536 228.5154,22.0526 L228.4344,21.9946 C228.1924,21.4656 228.2454,21.0916 228.9304,21.0476 L229.0294,21.1366 Z" id="Fill-434" fill="#4D4D4D"></path>
            <path d="M274.0831,54.6596 C274.2871,54.2966 274.6401,54.2126 275.0131,54.1676 C275.0131,54.1676 275.1631,54.3366 275.1631,54.3366 C275.0181,54.8886 274.6721,55.0016 274.1761,54.7856 L274.0831,54.6596 Z" id="Fill-436" fill="#4D4D4D"></path>
            <path d="M185.8702,54.7523 C185.8462,54.8843 185.8102,55.0123 185.7652,55.1373 C185.5412,55.3923 185.2652,55.4393 184.9522,55.3463 C184.8892,55.2683 184.8252,55.1903 184.7612,55.1123 C185.0492,54.7403 185.4392,54.6853 185.8702,54.7523" id="Fill-438" fill="#4D4D4D"></path>
            <path d="M154.0489,7.6884 C153.7129,7.4544 153.6179,7.1024 153.5739,6.7254 L153.7369,6.5814 C154.1649,6.6864 154.3089,6.9784 154.2649,7.3914 C154.1929,7.4904 154.1209,7.5894 154.0489,7.6884" id="Fill-440" fill="#4D4D4D"></path>
            <path d="M154.5499,8.6093 C154.1889,8.4083 154.1019,8.0573 154.0499,7.6883 C154.0489,7.6883 154.1859,7.5653 154.1859,7.5653 C154.7719,7.6353 154.8649,7.9873 154.7109,8.4823 L154.5499,8.6093 Z" id="Fill-442" fill="#4D4D4D"></path>
            <path d="M215.5421,111.3471 C215.3441,111.7061 214.9941,111.7981 214.6301,111.8651 C214.6301,111.8661 214.5521,111.7771 214.5521,111.7771 C214.5481,111.0701 214.9401,111.0431 215.4661,111.2451 L215.5421,111.3471 Z" id="Fill-444" fill="#4D4D4D"></path>
            <path d="M183.8038,55.5956 C184.0368,55.2646 184.3888,55.1676 184.7618,55.1126 C184.7608,55.1126 184.8618,55.2236 184.8618,55.2236 C184.9178,55.8786 184.5228,55.9116 184.0378,55.8226 C183.9598,55.7466 183.8818,55.6706 183.8038,55.5956" id="Fill-446" fill="#4D4D4D"></path>
            <path d="M182.8849,56.0995 C183.0849,55.7395 183.4359,55.6515 183.8039,55.5955 L183.9099,55.7135 C183.8609,56.3385 183.4969,56.4125 182.9909,56.2365 L182.8849,56.0995 Z" id="Fill-448" fill="#4D4D4D"></path>
            <path d="M228.0362,66.6742 C228.3962,66.8742 228.4832,67.2252 228.5422,67.5912 C228.5432,67.5912 228.4322,67.6922 228.4322,67.6922 C227.7882,67.6512 227.7232,67.2822 227.9092,66.7712 L228.0362,66.6742 Z" id="Fill-450" fill="#4D4D4D"></path>
            <path d="M229.4757,69.5512 C229.8387,69.7532 229.9227,70.1062 229.9747,70.4762 C229.9747,70.4762 229.8357,70.6002 229.8357,70.6002 C229.2277,70.4732 229.1237,70.1222 229.3977,69.6062 L229.4757,69.5512 Z" id="Fill-452" fill="#4D4D4D"></path>
            <path d="M230.4483,94.0839 C230.4023,94.4559 230.3183,94.8089 229.9553,95.0119 L229.8673,94.9499 C229.5983,94.4439 229.7173,94.0979 230.2853,93.9389 L230.4483,94.0839 Z" id="Fill-454" fill="#4D4D4D"></path>
            <path d="M170.3683,99.8485 C170.0333,99.6165 169.9383,99.2645 169.8883,98.8895 C169.8883,98.8895 170.0213,98.7695 170.0213,98.7695 C170.5953,98.8005 170.6813,99.1525 170.5863,99.6255 C170.5143,99.7005 170.4413,99.7745 170.3683,99.8485" id="Fill-456" fill="#4D4D4D"></path>
            <path d="M228.0714,98.8983 C228.0064,99.2623 227.9164,99.6133 227.5554,99.8103 L227.4464,99.7283 C227.2504,99.2073 227.2914,98.8223 227.9764,98.8133 L228.0714,98.8983 Z" id="Fill-458" fill="#4D4D4D"></path>
            <path d="M170.8702,100.7694 C170.5092,100.5684 170.4212,100.2174 170.3682,99.8484 L170.5002,99.7294 C171.0962,99.7904 171.1842,100.1454 171.0282,100.6434 L170.8702,100.7694 Z" id="Fill-460" fill="#4D4D4D"></path>
            <path d="M221.3145,107.037 C221.1525,107.197 220.9915,107.356 220.8295,107.515 L220.7355,107.212 C220.8525,107.015 221.0245,106.931 221.2515,106.959 L221.3145,107.037 Z" id="Fill-462" fill="#4D4D4D"></path>
            <path d="M220.8292,107.515 C220.6732,107.668 220.5172,107.821 220.3612,107.973 C220.3612,107.973 220.2212,107.841 220.2212,107.841 C220.2552,107.531 220.4152,107.37 220.7392,107.408 L220.8292,107.515 Z" id="Fill-464" fill="#4D4D4D"></path>
            <path d="M177.0987,108.4564 C176.9437,108.3024 176.7877,108.1494 176.6337,107.9954 L176.7097,107.9034 C177.0527,107.8544 177.2097,108.0164 177.2167,108.3494 L177.0987,108.4564 Z" id="Fill-466" fill="#4D4D4D"></path>
            <path d="M218.9317,108.9721 C218.7697,109.1211 218.6087,109.2691 218.4467,109.4181 L218.3387,109.3221 C218.3577,108.9711 218.4987,108.7821 218.8807,108.9101 L218.9317,108.9721 Z" id="Fill-468" fill="#4D4D4D"></path>
            <path d="M172.7979,65.2089 L173.2489,64.7309 L173.3169,64.7859 C173.4279,65.1529 173.2459,65.2989 172.9079,65.3289 L172.7979,65.2089 Z" id="Fill-470" fill="#4D4D4D"></path>
            <path d="M174.2423,63.2943 L174.7173,62.8113 C174.7523,62.9033 174.7873,62.9963 174.8223,63.0883 C174.7373,63.2803 174.5913,63.3953 174.3893,63.4443 L174.2423,63.2943 Z" id="Fill-472" fill="#4D4D4D"></path>
            <path d="M174.7169,62.8109 L175.1949,62.3289 C175.2289,62.4249 175.2629,62.5219 175.2969,62.6179 C175.1959,62.8099 175.0379,62.9139 174.8219,62.9309 L174.7169,62.8109 Z" id="Fill-474" fill="#4D4D4D"></path>
            <path d="M175.1944,62.329 C175.3534,62.169 175.5114,62.008 175.6714,61.848 C175.7054,61.946 175.7384,62.044 175.7724,62.143 C175.6634,62.335 175.5004,62.434 175.2754,62.426 L175.1944,62.329 Z" id="Fill-476" fill="#4D4D4D"></path>
            <path d="M224.1856,61.3715 C224.3446,61.5325 224.5026,61.6935 224.6626,61.8545 C224.6626,61.8535 224.5236,62.0015 224.5236,62.0015 C224.3186,61.9575 224.1706,61.8415 224.0816,61.6525 C224.1176,61.5585 224.1516,61.4655 224.1856,61.3715" id="Fill-478" fill="#4D4D4D"></path>
            <path d="M175.671,61.8476 C175.83,61.6876 175.99,61.5276 176.15,61.3676 C176.183,61.4676 176.216,61.5676 176.25,61.6676 C176.134,61.8626 175.967,61.9546 175.738,61.9286 L175.671,61.8476 Z" id="Fill-480" fill="#4D4D4D"></path>
            <path d="M223.7071,60.8905 C223.8671,61.0515 224.0261,61.2115 224.1861,61.3715 C224.1861,61.3715 224.0791,61.4945 224.0791,61.4945 C223.8641,61.4745 223.7071,61.3695 223.6071,61.1795 L223.7071,60.8905 Z" id="Fill-482" fill="#4D4D4D"></path>
            <path d="M176.1495,61.3666 C176.3095,61.2066 176.4695,61.0476 176.6295,60.8876 C176.6635,60.9886 176.6955,61.0896 176.7285,61.1906 C176.6115,61.3886 176.4385,61.4726 176.2115,61.4416 L176.1495,61.3666 Z" id="Fill-484" fill="#4D4D4D"></path>
            <path d="M223.2276,60.4105 C223.3876,60.5705 223.5476,60.7305 223.7066,60.8905 L223.6136,61.0005 C223.3936,60.9955 223.2356,60.8925 223.1286,60.7025 C223.1626,60.6055 223.1946,60.5075 223.2276,60.4105" id="Fill-486" fill="#4D4D4D"></path>
            <path d="M176.63,60.8871 C176.791,60.7281 176.952,60.5681 177.112,60.4091 L177.209,60.7121 C177.091,60.9081 176.919,60.9921 176.692,60.9641 L176.63,60.8871 Z" id="Fill-488" fill="#4D4D4D"></path>
            <path d="M285.6231,59.9926 L285.1631,60.4536 C285.1631,60.4536 285.0191,60.3206 285.0191,60.3206 C285.0871,60.0816 285.2391,59.9196 285.4741,59.8366 L285.6231,59.9926 Z" id="Fill-490" fill="#4D4D4D"></path>
            <path d="M222.7462,59.932 C222.9072,60.091 223.0672,60.251 223.2272,60.411 L223.1342,60.521 C222.9152,60.514 222.7542,60.415 222.6492,60.224 L222.7462,59.932 Z" id="Fill-492" fill="#4D4D4D"></path>
            <path d="M177.1124,60.4091 C177.2734,60.2491 177.4344,60.0901 177.5954,59.9301 C177.6274,60.0301 177.6594,60.1301 177.6904,60.2301 C177.5764,60.4221 177.4114,60.5161 177.1854,60.4971 L177.1124,60.4091 Z" id="Fill-494" fill="#4D4D4D"></path>
            <path d="M222.2823,59.4716 C222.4373,59.6256 222.5923,59.7786 222.7473,59.9316 C222.7463,59.9316 222.6403,60.0546 222.6403,60.0546 C222.3283,60.0686 222.1683,59.9116 222.1393,59.6076 C222.1393,59.6076 222.2823,59.4716 222.2823,59.4716" id="Fill-496" fill="#4D4D4D"></path>
            <path d="M177.5958,59.9306 C177.7508,59.7776 177.9078,59.6246 178.0628,59.4726 L178.2038,59.6046 C178.1718,59.9136 178.0108,60.0726 177.6898,60.0416 L177.5958,59.9306 Z" id="Fill-498" fill="#4D4D4D"></path>
            <path d="M138.7657,59.4687 L139.2227,59.9327 C139.2217,59.9327 139.0797,60.0817 139.0797,60.0817 C138.7817,60.0447 138.6217,59.8877 138.6487,59.5737 L138.7657,59.4687 Z" id="Fill-500" fill="#4D4D4D"></path>
            <path d="M179.4903,58.4706 C179.6533,58.3226 179.8153,58.1746 179.9773,58.0266 C179.9773,58.0276 180.0843,58.1226 180.0843,58.1226 C180.0643,58.4746 179.9253,58.6666 179.5403,58.5316 L179.4903,58.4706 Z" id="Fill-502" fill="#4D4D4D"></path>
            <path d="M112.7794,58.5351 C112.6184,58.3781 112.4584,58.2211 112.2974,58.0631 C112.3914,58.0281 112.4864,57.9921 112.5824,57.9561 C112.7734,58.0531 112.8814,58.2081 112.9024,58.4221 L112.7794,58.5351 Z" id="Fill-504" fill="#4D4D4D"></path>
            <path d="M219.8849,57.5502 C220.0409,57.7022 220.1979,57.8552 220.3549,58.0082 L220.2949,58.0822 C219.9439,58.1712 219.7909,57.9982 219.7549,57.6722 L219.8849,57.5502 Z" id="Fill-506" fill="#4D4D4D"></path>
            <path d="M112.297,58.0629 C112.143,57.9079 111.988,57.7529 111.834,57.5979 C111.835,57.5979 111.91,57.5099 111.91,57.5099 C112.272,57.4729 112.429,57.6329 112.38,57.9939 L112.297,58.0629 Z" id="Fill-508" fill="#4D4D4D"></path>
            <path d="M179.4981,110.3764 C179.3421,110.2234 179.1861,110.0704 179.0281,109.9184 C179.0291,109.9184 179.0881,109.8444 179.0881,109.8444 C179.4451,109.7574 179.5961,109.9304 179.6201,110.2654 L179.4981,110.3764 Z" id="Fill-510" fill="#4D4D4D"></path>
            <path d="M229.922,2.3329 C230.076,2.1799 230.23,2.0259 230.383,1.8729 L230.532,2.0129 C230.456,2.2489 230.301,2.4049 230.066,2.4809 L229.922,2.3329 Z" id="Fill-512" fill="#4D4D4D"></path>
            <path d="M163.2462,5.2206 C163.3982,5.3786 163.5502,5.5356 163.7022,5.6936 C163.7022,5.6936 163.5522,5.8486 163.5522,5.8486 C163.2462,5.7816 163.0752,5.6226 163.1682,5.2836 L163.2462,5.2206 Z" id="Fill-514" fill="#4D4D4D"></path>
            <path d="M18.6573,178.4892 C18.6863,178.1872 18.8403,177.9922 19.1403,177.9212 C19.1043,178.2162 18.9413,178.4042 18.6573,178.4892" id="Fill-516" fill="#4D4D4D"></path>
            <path d="M221.2618,26.3725 C221.1088,26.2195 220.9538,26.0665 220.7998,25.9135 L220.9208,25.7815 C221.1668,25.8385 221.3258,25.9915 221.4108,26.2265 L221.2618,26.3725 Z" id="Fill-518" fill="#4D4D4D"></path>
            <path d="M21.044,218.9848 C20.742,218.9228 20.573,218.7348 20.526,218.4328 C20.837,218.4878 21.01,218.6708 21.044,218.9848" id="Fill-520" fill="#4D4D4D"></path>
            <path d="M21.5177,219.4721 C21.2187,219.4111 21.0437,219.2291 20.9887,218.9301 C21.3087,218.9711 21.4857,219.1511 21.5177,219.4721" id="Fill-522" fill="#4D4D4D"></path>
            <path d="M221.2804,19.1317 C221.4274,18.9687 221.5744,18.8057 221.7214,18.6437 L221.7844,18.6927 C221.9334,19.0547 221.7384,19.2047 221.4234,19.2797 L221.2804,19.1317 Z" id="Fill-524" fill="#4D4D4D"></path>
            <path d="M21.9981,219.9525 C21.6981,219.8945 21.5191,219.7165 21.4621,219.4165 C21.7841,219.4515 21.9631,219.6295 21.9981,219.9525" id="Fill-526" fill="#4D4D4D"></path>
            <path d="M22.4864,220.4252 C22.1854,220.3722 22.0044,220.1972 21.9424,219.8982 C22.2624,219.9292 22.4434,220.1062 22.4864,220.4252" id="Fill-528" fill="#4D4D4D"></path>
            <path d="M22.9815,220.8891 C22.6795,220.8411 22.4935,220.6711 22.4295,220.3701 C22.7445,220.4041 22.9275,220.5781 22.9815,220.8891" id="Fill-530" fill="#4D4D4D"></path>
            <path d="M225.1446,103.1952 C224.9916,103.3502 224.8376,103.5062 224.6846,103.6602 L224.5906,103.5832 C224.5406,103.2442 224.7046,103.0872 225.0296,103.0702 L225.1446,103.1952 Z" id="Fill-532" fill="#4D4D4D"></path>
            <g id="Group-536" transform="translate(0.000000, 140.354000)">
                <mask id="mask-4" fill="white">
                    <use xlink:href="#path-3"></use>
                </mask>
                <g id="Clip-535"></g>
                <path d="M355.4874,205.6264 C349.1614,214.6684 342.8184,223.6904 336.0724,232.4364 C322.0214,250.6514 305.3084,266.0054 286.5924,279.2654 C280.5914,283.5174 274.6594,287.8774 268.0034,291.1084 C264.0704,293.0174 264.1144,293.0294 261.6984,289.2894 C259.7904,286.3344 257.7484,283.4654 255.8534,280.5014 C252.2154,274.8074 246.9854,272.7784 240.4274,273.5184 C233.8204,274.2654 227.3054,275.4914 220.8704,277.1364 C211.4164,279.5514 202.0894,282.3744 192.9124,285.7084 C187.2034,287.7824 182.2994,290.9154 178.6634,295.8354 C177.3954,297.5514 175.6674,298.1604 173.6954,298.3144 C166.7774,298.8574 160.1664,297.6454 153.8564,294.7684 C153.5654,294.6354 153.2844,294.4824 153.0014,294.3324 C145.8024,290.4994 130.4264,278.0304 125.1314,271.7884 C119.6954,265.3814 114.5134,258.7764 109.5344,252.0114 C104.6494,245.3754 99.4724,238.9664 94.3454,232.5204 C86.6644,222.8624 79.5614,212.8174 73.8354,201.8594 C64.0434,183.1264 59.8934,163.2384 61.1924,142.1004 C62.8974,114.3554 73.7504,90.3394 91.2294,69.2984 C110.2644,46.3844 134.2464,30.3464 162.5754,20.9474 C173.3674,17.3674 184.3294,14.4544 195.6334,12.9904 C203.2694,12.0024 210.9364,11.8254 218.6224,12.2094 C234.1004,12.9824 249.3144,15.3184 264.1304,19.9664 C267.1024,20.8994 270.1294,21.7544 272.9634,23.0204 C281.4564,26.8124 289.5314,31.3804 296.5954,37.4784 C299.0944,39.6364 301.7864,40.4724 304.9034,40.5254 C309.6524,40.6064 314.3094,39.8134 318.9344,38.8844 C326.5364,37.3574 334.1134,35.7084 341.7014,34.1144 C343.2704,33.7854 344.8634,33.5884 346.4644,33.6044 C348.3164,33.6224 348.7144,34.0744 348.5544,35.9424 C348.4884,36.7294 348.2834,37.5184 348.0444,38.2754 C346.5234,43.0804 344.8424,47.8174 342.5794,52.3404 C339.5644,58.3664 337.2024,64.6254 335.8354,71.2574 C334.3214,78.5994 335.2164,85.5974 338.5874,92.2434 C342.7254,100.4034 348.3844,107.4134 355.3124,113.3614 C360.9094,118.1664 367.6844,120.1994 374.8414,121.2384 C380.0084,121.9884 385.0404,121.3044 390.1814,119.8154 C390.5204,120.9664 390.2284,121.8204 390.0894,122.6644 C385.0774,153.0374 373.0694,180.4954 355.4874,205.6264 M361.8684,216.1754 C363.0994,214.6604 364.3664,213.1694 365.2084,211.3824 C365.2014,211.3884 365.1954,211.3944 365.1884,211.3994 C366.6304,208.8924 368.2144,206.4804 370.0084,204.2104 C370.1254,203.5904 370.4274,203.0904 370.9464,202.7284 C371.2334,201.8134 371.7154,201.0184 372.4124,200.3574 C372.5824,199.4694 373.1804,198.8004 373.6204,198.0574 C383.0094,182.1784 390.8474,165.6094 395.7584,147.7674 C398.1534,139.0634 400.1124,130.2524 401.5144,121.3254 C401.8134,119.4214 401.9094,117.5034 401.7254,115.5894 C401.2344,110.4834 397.3934,107.3944 392.3034,107.9654 C390.0684,108.2164 387.9374,108.9144 385.7824,109.5094 C380.0224,111.1004 374.4174,110.5544 368.9304,108.3114 C368.9304,108.3114 368.9294,108.3114 368.9294,108.3104 C366.0944,107.7174 363.7974,106.1144 361.7194,104.2344 C356.6434,99.6424 352.385395,94.3724 349.0624,88.3694 C346.3114,83.3994 345.5774,78.1844 346.8754,72.6114 C348.1354,67.1994 350.1204,62.0794 352.5874,57.1304 C355.4154,51.4564 357.6264,45.5444 359.2144,39.4234 C360.9844,32.5994 358.6564,27.0644 352.7644,23.4424 C350.1324,22.0984 347.2894,21.8504 344.4434,22.1774 C338.3964,22.8724 332.5304,24.5404 326.5734,25.7264 C320.3684,26.9604 314.2084,28.4504 307.8784,29.0024 C306.1024,29.1574 304.6364,28.9484 303.4054,27.4594 C302.0374,25.8024 300.4074,24.3844 298.4894,23.3484 L298.5314,23.3794 C292.9634,19.1604 286.6574,16.3494 280.2184,13.7904 C279.5424,13.1754 278.6434,13.0964 277.8274,12.8194 L277.8814,12.8554 C274.3224,11.2064 270.6384,9.9114 266.8274,8.9844 C266.7834,8.9264 266.7434,8.8554 266.6864,8.8384 C256.5294,5.7724 246.1984,3.6134 235.6494,2.3294 C228.3794,1.4444 221.0964,0.7644 213.7984,0.5654 C205.8504,0.3494 197.9344,1.0504 190.0544,2.3544 C180.2784,3.9704 170.7044,6.2844 161.3404,9.4984 L161.3974,9.4614 C160.9444,9.7584 160.2614,9.3724 159.9044,9.9554 C159.4574,10.2144 158.8044,9.8724 158.4614,10.4334 C158.0224,10.6954 157.3744,10.3564 157.0374,10.9064 C153.7204,11.9074 150.4614,13.0664 147.2804,14.4384 C142.2804,16.5944 137.1514,18.4884 132.5664,21.5114 L132.6144,21.4734 C130.2524,22.5794 127.9374,23.7684 125.8504,25.3554 L125.8974,25.3184 C125.2934,25.4634 124.8034,25.7974 124.3834,26.2424 C123.6034,26.7414 122.6364,26.9434 122.0284,27.7134 C121.4544,27.8924 120.9514,28.1794 120.5684,28.6534 C120.0194,28.8714 119.5074,29.1424 119.1204,29.6054 C118.5844,29.8414 118.0604,30.0974 117.6834,30.5704 C117.1454,30.8034 116.6144,31.0464 116.2574,31.5434 C115.7054,31.7604 115.1614,31.9884 114.8404,32.5324 C114.0084,32.7454 113.4854,33.3864 112.8884,33.9274 C112.1154,34.2264 111.5604,34.8234 110.9564,35.3524 C110.2074,35.6874 109.6314,36.2524 109.0404,36.7964 C108.2914,37.1364 107.6914,37.6684 107.1414,38.2644 C106.1314,38.6354 105.5234,39.5134 104.7464,40.1774 C103.7434,40.5724 103.0974,41.4014 102.3724,42.1324 C100.7254,42.8274 99.8374,44.4014 98.5104,45.4684 C94.5004,48.5204 91.3204,52.4364 87.6964,55.8904 C86.7354,56.8044 85.5574,57.5754 85.0864,58.9264 C84.2334,59.8394 83.1714,60.5754 82.6724,61.7874 C81.9894,62.5504 81.1284,63.1704 80.7454,64.1754 C80.1534,64.7284 79.6244,65.3304 79.2754,66.0714 C78.1624,67.2384 77.2024,68.5194 76.4124,69.9264 C75.4484,70.9264 74.7044,72.0824 74.0404,73.2934 C73.5284,73.6464 73.2794,74.1764 73.0634,74.7304 C72.5764,75.0994 72.3084,75.6144 72.1084,76.1744 C71.6164,76.5464 71.3254,77.0474 71.1724,77.6374 C70.3714,78.2434 70.1564,79.2144 69.6934,80.0314 L69.7284,79.9854 C68.0944,83.8604 64.9834,85.4604 61.0304,86.5264 C55.9514,87.8954 50.8504,88.8844 45.6394,89.2654 C39.1364,89.7404 33.3464,87.3894 27.7924,84.3124 C27.1674,83.8024 26.6534,83.1334 25.8164,82.9224 C24.9074,82.0764 24.1724,81.0224 22.9724,80.5184 C22.9064,80.2524 22.7454,80.0864 22.4764,80.0374 C22.4254,79.7574 22.2634,79.5904 21.9784,79.5524 C21.9344,79.2834 21.7774,79.1274 21.5084,79.0824 C21.4694,78.7974 21.3034,78.6354 21.0244,78.5854 C20.9754,78.3174 20.8104,78.1574 20.5474,78.0894 C20.0634,76.8794 18.9524,76.1854 18.1714,75.2204 C17.9454,74.6694 17.7024,74.1294 17.1864,73.7774 C16.3794,72.0524 15.4414,70.3904 14.6414,68.6634 C12.7734,64.6314 11.9014,60.3894 12.1444,55.9434 C12.5064,49.3464 14.8134,43.4524 18.6654,38.1294 C18.8994,38.0084 19.0864,37.8474 19.1374,37.5714 C19.7514,36.9164 20.4224,36.3164 21.0164,35.6434 C23.0194,34.2914 25.0774,33.3064 27.4814,34.7024 C28.0824,35.4084 28.8544,35.9414 29.4534,36.6504 C31.7284,39.3434 31.6934,42.7604 29.3714,45.0084 C28.2234,45.0784 27.8344,44.0214 27.1214,43.4604 C25.2074,41.9574 23.0574,41.5504 20.8244,42.3434 C18.5584,43.1474 17.4614,45.0584 17.3804,47.3574 C17.2834,50.1164 18.8064,52.2444 20.8504,53.8684 C27.7964,59.3884 38.1954,56.3484 41.6904,48.1214 C44.9074,40.5484 41.1974,28.8164 34.0014,25.2764 L34.0464,25.3104 C28.1854,20.8324 19.8444,21.4044 15.0074,25.7864 C12.8684,27.1564 11.1874,28.9894 9.7074,31.0244 C9.1414,31.6124 8.5684,32.1934 8.2424,32.9614 C7.7674,33.4814 7.3114,34.0084 6.9504,34.6244 C1.6414,43.6704 -0.8626,53.3104 0.9944,63.7924 C2.1614,70.3804 4.6164,76.4614 8.8004,81.7654 L8.7624,81.7194 C11.5404,85.9914 15.1554,89.4314 19.3104,92.3334 L19.2654,92.2984 C25.7834,97.3984 33.1914,100.2374 41.4284,100.7764 C46.8464,101.1304 52.2224,100.6314 57.5284,99.4064 C59.2314,99.0124 59.5334,99.4264 58.9364,101.0724 C58.0934,103.3964 57.1684,105.6894 56.3594,108.0264 C52.7474,118.4624 50.5874,129.1884 49.9374,140.2134 C49.4674,148.1924 49.3934,156.1834 50.2674,164.1274 C51.0754,171.4624 52.7764,178.6384 54.9204,185.7114 C57.8724,195.4524 61.9304,204.6804 67.3184,213.3194 L67.2844,213.2734 C67.7394,214.0994 68.0304,215.0214 68.7224,215.7054 C70.7854,219.6174 73.2304,223.2804 75.9534,226.7614 L75.9204,226.7184 C76.1724,227.2544 76.3894,227.8144 76.9254,228.1494 C77.1594,228.9684 77.7954,229.4994 78.3314,230.1014 C79.0714,231.2564 79.7024,232.4944 80.7684,233.4084 C81.0694,234.4684 82.0124,235.0364 82.6344,235.8504 C83.5354,237.4674 84.6964,238.8784 86.0284,240.1544 C86.3964,241.1694 87.2764,241.7764 87.9424,242.5534 C88.3134,243.5664 89.1954,244.1774 89.8434,244.9714 C90.1804,245.7284 90.6974,246.3444 91.3324,246.8674 C92.3464,248.6724 93.7104,250.2024 95.1324,251.6864 C95.4544,252.4504 95.9714,253.0594 96.6084,253.5764 C96.9174,254.6284 97.8534,255.1994 98.4754,256.0114 C98.7964,256.7744 99.3834,257.3394 99.9134,257.9464 C100.1944,258.4554 100.3834,259.0324 100.9364,259.3404 C101.1674,260.1634 101.7604,260.7164 102.3634,261.2624 C102.6154,262.0734 103.1914,262.6404 103.8064,263.1764 C104.1164,264.2274 105.0544,264.7974 105.6734,265.6124 C106.0114,266.3644 106.5554,266.9594 107.1374,267.5244 C107.4514,268.3014 107.9844,268.9074 108.6224,269.4324 C111.3374,273.3764 114.4754,276.9694 117.7334,280.4644 C119.5984,283.0644 121.8314,285.2974 124.4304,287.1624 C125.3664,287.9994 126.0774,289.1054 127.3164,289.5784 C127.8394,290.2074 128.4624,290.7104 129.2004,291.0664 C130.0104,291.6904 130.6074,292.5904 131.6214,292.9534 C132.1634,293.5484 132.7694,294.0594 133.4944,294.4214 C133.6164,294.6604 133.7734,294.8564 134.0704,294.8754 C135.3224,296.2084 136.8064,297.2454 138.3344,298.2274 C138.9024,298.8074 139.4594,299.4034 140.2664,299.6594 C140.6114,300.1874 141.1624,300.4174 141.7084,300.6554 L141.6634,300.6214 C144.8604,303.1454 148.4634,304.9224 152.2364,306.3884 C152.4164,306.6724 152.7294,306.7044 153.0144,306.8054 C158.6424,308.7914 164.4944,309.8344 170.4054,309.9864 C174.8764,310.1024 179.4054,309.5024 183.3144,306.8494 L183.2664,306.8854 C184.0494,306.5964 184.6334,306.0564 185.1524,305.4304 C185.4674,305.3964 185.6434,305.2184 185.6824,304.9024 L185.6244,304.9614 C186.6024,303.8394 187.9484,303.0304 188.5314,301.5694 C189.2054,300.9604 189.8284,300.3014 190.4674,299.6584 C192.4684,298.3524 194.6444,297.3724 196.7744,296.3074 L196.7234,296.3384 C197.1634,296.1374 197.6514,296.1164 198.1034,295.9574 C211.0304,291.4094 224.1114,287.4004 237.7034,285.3924 C240.8354,284.9294 244.4274,283.5064 246.8134,287.2534 L246.7844,287.2144 C247.0524,287.7374 247.2964,288.2784 247.7684,288.6614 C248.0054,289.1974 248.2644,289.7174 248.7294,290.1004 C248.9654,290.6364 249.2204,291.1604 249.6934,291.5374 C249.9244,292.0764 250.1744,292.6034 250.6614,292.9684 C250.8744,293.5224 251.1424,294.0404 251.6214,294.4184 C252.6604,296.2284 253.5214,298.1514 254.9874,299.6894 C257.5134,303.6844 260.8954,305.5864 264.3694,304.6894 C270.1204,303.2054 275.3414,300.5284 280.2514,297.2194 L280.2044,297.2564 C280.8054,297.1094 281.3024,296.7974 281.7004,296.3254 C282.7614,295.8414 283.7664,295.2704 284.5854,294.4184 C285.1134,294.1684 285.6474,293.9254 286.0154,293.4434 C286.5594,293.2124 287.1004,292.9774 287.4414,292.4564 C288.6624,291.8074 289.8034,291.0444 290.8174,290.0994 C291.3474,289.8414 291.9074,289.6244 292.2414,289.0904 C294.1244,287.9964 295.885395,286.7344 297.4934,285.2634 C298.3124,285.0144 298.8794,284.4314 299.4214,283.8154 C300.4684,283.5014 301.0434,282.5694 301.8534,281.9464 C302.6064,281.6064 303.2104,281.0734 303.7604,280.4734 C304.7764,280.1044 305.3864,279.2184 306.1804,278.5674 C307.8994,277.4394 309.5284,276.2004 310.9514,274.7074 C312.1674,274.2084 312.9094,273.1504 313.8114,272.2834 C315.6204,271.4254 316.6714,269.7124 318.1284,268.4594 C319.0484,268.2484 319.5494,267.4834 320.1574,266.8804 C323.8764,263.1884 327.5844,259.4834 331.2734,255.7614 C331.9304,255.0984 332.7704,254.5604 333.0234,253.5674 C334.1374,252.2864 335.6474,251.3524 336.3764,249.7334 C337.2274,248.8154 338.3014,248.0844 338.7934,246.8614 C339.6044,245.9134 340.7264,245.2204 341.1824,243.9774 C341.8884,243.2324 342.7354,242.6014 343.1214,241.5954 C344.5784,240.1434 345.8884,238.5734 346.9394,236.7974 C347.5534,236.2574 348.0904,235.6564 348.4144,234.8924 C348.9764,234.3154 349.5334,233.7344 349.8644,232.9804 C350.4054,232.3874 350.9814,231.8184 351.3014,231.0594 C351.8414,230.4614 352.4424,229.9104 352.7234,229.1234 C353.2864,228.5434 353.9084,228.0074 354.1304,227.1824 C354.6774,226.8634 354.8864,226.3004 355.1374,225.7694 C356.0974,224.7684 356.8324,223.6094 357.5104,222.4104 C358.0174,222.0564 358.2424,221.5054 358.5094,220.9834 C359.4404,219.9594 360.1974,218.8144 360.8714,217.6104 C361.3784,217.2534 361.6084,216.7044 361.8684,216.1754" id="Fill-534" fill="#4D4D4D" mask="url(#mask-4)"></path>
            </g>
            <path d="M180.5313,101.184 C185.8413,105.939 192.0643,108.564 199.1733,108.902 C209.0103,109.37 218.8813,104.601 223.1953,92.648 C226.9733,82.182 225.1003,72.508 217.4203,64.18 C215.9473,62.582 214.1483,61.394 212.4873,60.032 C212.8133,59.815 213.1743,59.636 213.4613,59.374 C215.3453,57.658 215.0243,55.762 212.6033,54.755 C211.4493,54.275 210.1773,54.082 208.9903,53.667 C208.0623,53.344 206.8903,53.406 206.4073,52.251 C207.7273,52.073 208.9003,52.851 210.1963,52.832 C210.5883,53.259 211.1033,53.311 211.6363,53.311 C212.0083,53.745 212.5193,53.801 213.0393,53.837 C214.3213,54.473 215.6033,55.107 216.8853,55.743 C217.2583,56.236 217.7483,56.542 218.3493,56.674 C218.6893,57.187 219.1683,57.506 219.7553,57.672 C219.8323,57.944 220.0223,58.066 220.2953,58.082 C220.7693,58.761 221.3973,59.254 222.1393,59.608 C222.2003,59.876 222.3723,60.02 222.6403,60.055 C222.6933,60.328 222.8603,60.48 223.1343,60.521 C223.1793,60.795 223.3403,60.955 223.6133,61.001 C223.6543,61.274 223.8063,61.441 224.0793,61.495 C224.1133,61.764 224.2563,61.937 224.5233,62.001 C224.8693,62.745 225.3513,63.379 226.0103,63.875 C226.1693,64.465 226.4833,64.946 226.9953,65.291 C227.1193,65.896 227.4253,66.389 227.9093,66.771 C227.9443,67.157 228.0573,67.498 228.4313,67.692 C228.5613,68.427 228.8713,69.071 229.3973,69.606 C229.3953,70.003 229.4733,70.365 229.8363,70.601 C230.6413,73.474 231.4473,76.348 232.2523,79.221 C232.2553,81.103 232.2573,82.986 232.2603,84.869 C231.7733,86.109 231.8293,87.417 231.7853,88.712 C231.3373,89.44 231.3223,90.264 231.2643,91.078 C230.8653,91.491 230.8213,92.011 230.8203,92.545 C230.3853,92.911 230.3313,93.423 230.2853,93.939 C229.9343,94.188 229.8623,94.553 229.8673,94.95 C229.0563,96.149 228.4503,97.449 227.9763,98.813 C227.6033,99.004 227.4783,99.34 227.4463,99.728 C226.9483,100.092 226.6433,100.582 226.4953,101.175 C225.8433,101.68 225.3593,102.315 225.0293,103.07 C224.7573,103.133 224.6203,103.312 224.5913,103.583 C223.3723,104.604 222.2663,105.736 221.2513,106.959 C220.9763,106.991 220.8003,107.133 220.7393,107.408 C220.4693,107.435 220.2893,107.571 220.2203,107.841 C219.6483,108.04 219.1883,108.379 218.8813,108.91 C218.6063,108.924 218.4163,109.047 218.3393,109.322 C217.7523,109.485 217.2713,109.801 216.9313,110.315 C216.3283,110.444 215.8363,110.748 215.4663,111.245 C215.0743,111.274 214.7433,111.405 214.5523,111.777 C212.9273,112.546 211.3013,113.314 209.6753,114.083 C209.1573,114.122 208.6413,114.167 208.2663,114.599 C207.7343,114.604 207.2133,114.642 206.8093,115.058 C205.3293,115.324 203.8563,115.642 202.3683,115.847 C195.8373,116.748 189.5543,116.027 183.6643,112.872 C183.4593,112.762 183.2183,112.718 182.9943,112.644 C182.6293,112.15 182.1473,111.831 181.5493,111.691 C181.0333,111.043 180.3843,110.576 179.6203,110.265 C179.5493,109.99 179.3623,109.862 179.0883,109.845 C178.6143,109.159 177.9713,108.684 177.2173,108.349 C177.1573,108.076 176.9823,107.934 176.7103,107.903 C175.8943,106.804 174.8913,105.89 173.8503,105.014 C173.7723,104.747 173.6943,104.481 173.6163,104.215 C174.4263,104.288 174.8323,104.944 175.3193,105.447 C176.0893,106.243 176.8853,106.872 178.0443,106.288 C179.2793,105.665 180.4553,104.971 180.4883,103.342 C180.5033,102.622 180.5163,101.903 180.5313,101.184" id="Fill-537" fill="#4D4D4D"></path>
            <path d="M206.3956,58.099 C203.2076,57.992 200.0356,57.715 196.8426,58.336 C187.9326,60.068 181.9736,65.41 178.3596,73.487 C176.5576,77.513 175.3446,81.76 175.6766,86.277 C175.9436,89.895 176.9116,93.349 178.1696,96.734 C178.3636,97.254 178.5106,97.79 178.6796,98.318 C175.8376,95.027 173.7476,91.474 173.2146,86.965 C172.5246,81.115 173.3576,75.536 176.0816,70.466 C178.7026,65.586 182.4316,61.598 187.8606,59.449 C191.5986,57.969 195.4576,56.886 199.3816,56.806 C201.6416,56.761 204.3336,56.271 206.3956,58.099" id="Fill-539" fill="#4D4D4D"></path>
            <path d="M179.5401,58.5312 C179.8131,58.5182 180.0061,58.3972 180.0841,58.1222 C180.6731,57.9642 181.1581,57.6552 181.5061,57.1452 C182.1101,57.0212 182.6051,56.7182 182.9911,56.2372 C183.3721,56.1942 183.7191,56.0892 183.9101,55.7132 C184.3011,55.6922 184.6521,55.5972 184.8611,55.2232 C185.1621,55.1952 185.4641,55.1662 185.7651,55.1372 C184.3261,57.5792 181.7991,58.7852 179.6231,60.3262 C177.5051,61.8262 176.5241,64.1262 174.9351,65.9812 C174.6781,66.2812 174.7381,66.8982 174.7411,67.3682 C174.7441,68.1262 174.4681,68.7832 174.0701,69.3812 C171.7571,72.8542 171.0051,76.8082 170.3711,80.8332 C170.0991,82.5702 169.9901,84.2922 169.9061,86.0402 C169.6941,90.4582 170.3341,94.7562 171.5071,98.9882 C171.7251,99.7742 171.8981,100.5232 171.7881,101.3292 C171.5351,101.1002 171.2811,100.8722 171.0281,100.6432 C170.9801,100.2642 170.8691,99.9222 170.5001,99.7302 C170.4771,99.3412 170.3861,98.9872 170.0211,98.7692 C169.8781,97.8992 169.5771,97.0912 169.0721,96.3632 C169.0611,95.8332 169.0281,95.3092 168.6121,94.9072 C168.1151,92.8422 167.6181,90.7772 167.1211,88.7122 C166.9601,86.5052 166.7991,84.2982 166.6381,82.0912 C167.1211,79.5342 167.6031,76.9782 168.0871,74.4212 C168.5061,74.0282 168.5541,73.5102 168.5641,72.9812 C169.3641,71.3822 170.1641,69.7842 170.9651,68.1852 C171.4631,67.8202 171.7651,67.3262 171.9061,66.7302 C172.4251,66.3952 172.7451,65.9182 172.9081,65.3282 C173.1821,65.2512 173.3031,65.0582 173.3161,64.7852 C173.8491,64.4772 174.1791,64.0092 174.3901,63.4442 C174.6541,63.3752 174.7921,63.1982 174.8221,62.9312 C175.0951,62.8722 175.2401,62.6982 175.2751,62.4262 C175.5511,62.3732 175.7011,62.2032 175.7381,61.9282 C176.0121,61.8792 176.1681,61.7162 176.2111,61.4422 C176.4861,61.3982 176.6451,61.2382 176.6921,60.9642 C176.9661,60.9232 177.1341,60.7722 177.1861,60.4972 C177.4591,60.4622 177.6311,60.3142 177.6891,60.0412 C177.9591,60.0102 178.1381,59.8742 178.2041,59.6042 C178.7671,59.3922 179.2301,59.0582 179.5401,58.5312" id="Fill-541" fill="#4D4D4D"></path>
            <path d="M171.9249,102.1376 L171.7579,101.2846 C172.5389,101.5046 172.8559,102.0126 172.7029,102.8106 C172.4439,102.5866 172.1849,102.3626 171.9249,102.1376" id="Fill-543" fill="#4D4D4D"></path>
            <path d="M178.6495,98.267 C179.0335,98.504 179.1125,98.884 179.1315,99.292 C178.6385,99.107 178.5875,98.714 178.6495,98.267" id="Fill-545" fill="#4D4D4D"></path>
            <path d="M173.2638,103.6869 C172.8678,103.5039 172.7218,103.1589 172.6628,102.7579 C173.1948,102.8539 173.2698,103.2439 173.2638,103.6869" id="Fill-547" fill="#4D4D4D"></path>
            <path d="M179.1056,99.2489 C179.4826,99.4489 179.6206,99.8009 179.7006,100.1889 C179.1406,100.1039 179.0786,99.7059 179.1056,99.2489" id="Fill-549" fill="#4D4D4D"></path>
            <path d="M179.6427,100.1273 C179.9327,100.2163 180.0747,100.4213 180.1117,100.7123 C179.8117,100.6323 179.6527,100.4393 179.6427,100.1273" id="Fill-551" fill="#4D4D4D"></path>
            <path d="M180.0655,100.663 C180.3565,100.733 180.5145,100.922 180.5555,101.214 C180.2815,101.129 180.1175,100.947 180.0655,100.663" id="Fill-553" fill="#4D4D4D"></path>
            <path d="M173.6681,104.2685 C173.3771,104.1705 173.2551,103.9555 173.2471,103.6615 C173.5211,103.7715 173.6651,103.9715 173.6681,104.2685" id="Fill-555" fill="#4D4D4D"></path>
            <path d="M285.4737,59.8368 C285.2087,59.8918 285.0587,60.0538 285.0197,60.3208 C283.1957,61.7328 280.8807,61.9098 278.8387,62.7728 C276.8127,63.1018 274.9087,63.8028 273.0567,64.6658 C272.5247,64.6708 272.0067,64.7168 271.6127,65.1408 C271.0807,65.1478 270.5627,65.1938 270.1667,65.6138 C269.6367,65.6248 269.1217,65.6758 268.7367,66.1058 C268.2067,66.1188 267.6897,66.1668 267.2917,66.5798 C265.8967,66.6248 264.5607,67.1988 263.1427,67.0468 C262.1847,66.6208 261.4297,65.9408 260.7717,65.1418 C260.6387,64.2508 260.6427,63.3608 260.7837,62.4708 C261.5547,61.6528 262.3267,60.8348 263.0987,60.0168 C263.6877,59.8628 264.1797,59.5608 264.5517,59.0738 C265.2847,58.9398 265.9347,58.6398 266.4847,58.1318 C267.6937,57.8598 268.8257,57.4088 269.8447,56.6918 C271.3777,56.2618 272.8547,55.7008 274.1757,54.7858 C274.5717,54.7818 274.9277,54.6918 275.1627,54.3368 C276.2937,54.1528 277.1957,53.4408 278.2177,53.0048 C279.3287,52.5318 280.4467,52.1528 281.6747,52.1698 C285.3947,52.2198 287.4707,55.3818 285.9967,58.7698 C285.8387,59.1328 285.6497,59.4818 285.4737,59.8368" id="Fill-557" fill="#4D4D4D"></path>
            <path d="M163.1681,5.2836 C163.1701,5.5576 163.2841,5.7556 163.5521,5.8486 C163.7131,6.4396 164.0311,6.9166 164.5511,7.2506 C164.6911,7.8496 165.0061,8.3336 165.5091,8.6926 C165.6261,9.3046 165.9441,9.7876 166.4451,10.1536 C166.5821,10.7566 166.8991,11.2386 167.4121,11.5876 C167.5521,12.1866 167.8691,12.6696 168.3631,13.0346 C168.4121,13.4176 168.5481,13.7456 168.9251,13.9216 C169.6261,15.5336 170.5801,16.9806 171.7751,18.2686 C172.0381,18.8386 172.3291,19.3976 172.5591,19.9796 C173.3631,22.0286 172.8181,24.1326 171.2071,25.2886 C169.5991,26.4436 167.4671,26.2796 165.7511,24.8576 C165.3911,24.5586 165.0561,24.2286 164.7101,23.9126 C164.5731,23.3136 164.2811,22.8136 163.7721,22.4536 C163.6511,21.8436 163.3401,21.3566 162.8291,20.9986 C162.7061,20.3876 162.3931,19.9026 161.8701,19.5566 C161.7251,18.9566 161.4021,18.4806 160.8801,18.1436 C160.7441,17.5426 160.4391,17.0516 159.9281,16.6976 C159.8131,16.0846 159.5001,15.5966 158.9941,15.2336 C158.8671,14.6246 158.5461,14.1456 158.0301,13.7966 C157.8981,13.1936 157.5801,12.7106 157.0851,12.3446 C156.7741,11.4426 156.3291,10.6226 155.6211,9.9666 C155.5111,9.3526 155.1911,8.8676 154.7111,8.4816 C154.6651,8.1016 154.5521,7.7616 154.1861,7.5646 C154.1711,7.1756 154.0811,6.8196 153.7361,6.5806 C153.4351,4.9916 153.3221,3.4206 154.1461,1.9306 C154.5751,1.7356 154.9021,1.4286 155.1371,1.0206 C157.6441,0.0286 159.6011,0.8526 161.2181,2.8416 C161.5131,3.2036 161.8591,3.5246 162.1821,3.8646 C162.3281,4.4636 162.6431,4.9466 163.1681,5.2836" id="Fill-559" fill="#4D4D4D"></path>
            <path d="M112.38,57.994 C112.333,57.725 112.179,57.562 111.91,57.51 C111.201,56.339 111.113,55.092 111.452,53.792 C112.636,52.409 114.185,52.064 115.912,52.216 C116.615,52.278 117.319,52.321 118.023,52.372 C118.579,52.813 119.247,52.847 119.913,52.888 C120.328,53.288 120.851,53.327 121.385,53.327 C121.769,53.755 122.285,53.801 122.811,53.824 C125.456,55.015 128.196,55.933 131.001,56.665 C131.699,57.22 132.488,57.555 133.375,57.658 C133.767,58.096 134.287,58.139 134.824,58.129 C136.037,58.773 137.497,58.766 138.649,59.574 C138.682,59.837 138.817,60.014 139.08,60.082 C139.194,60.461 139.343,60.833 139.416,61.22 C139.908,63.821 137.867,65.74 135.283,65.091 C134.214,64.823 133.259,64.159 132.109,64.159 C131.519,63.701 130.828,63.716 130.136,63.744 C129.403,63.308 128.586,63.261 127.766,63.228 C126.053,62.536 124.289,62.036 122.448,61.835 C121.888,61.359 121.212,61.341 120.529,61.354 C119.972,60.902 119.306,60.858 118.631,60.848 C116.721,60.039 114.812,59.23 112.902,58.422 C112.833,58.152 112.649,58.022 112.38,57.994" id="Fill-561" fill="#4D4D4D"></path>
            <path d="M221.4229,19.2802 C221.6939,19.1762 221.7969,18.9702 221.7839,18.6922 C223.1509,16.4232 224.3759,14.0862 225.2419,11.5732 L229.0629,3.8802 C229.5539,3.5272 229.8619,3.0422 230.0659,2.4812 C230.3269,2.4312 230.4839,2.2752 230.5319,2.0132 L232.3899,0.9982 C236.1419,1.2792 237.3609,3.0482 236.2919,6.6552 C236.2039,6.9542 236.1519,7.2642 236.0829,7.5692 C235.0859,9.0702 234.3379,10.6952 233.6809,12.3652 C233.3059,12.5642 233.2019,12.9122 233.1679,13.2982 C232.3359,14.3222 231.7639,15.4852 231.3209,16.7192 C230.9419,16.9182 230.8309,17.2622 230.8149,17.6572 C230.4399,17.8612 230.3369,18.2092 230.3129,18.5992 C229.9439,18.7992 229.8389,19.1462 229.7949,19.5272 C229.3279,19.9322 229.0099,20.4222 228.9309,21.0482 C228.5489,21.2502 228.4389,21.5952 228.4349,21.9952 C227.8629,22.4902 227.7889,23.2442 227.4649,23.8682 C226.0629,26.5752 224.3459,27.2502 221.4109,26.2262 C221.3499,25.9652 221.1829,25.8212 220.9209,25.7812 C219.5479,23.4952 220.2429,21.3692 221.4229,19.2802" id="Fill-563" fill="#4D4D4D"></path>
            <path d="M210.7862,163.851 C217.2692,163.77 223.7212,164.338 230.1612,165.065 C231.2072,165.183 232.2092,165.457 233.1042,166.015 C234.9602,167.168 235.9132,168.843 235.7462,171.039 C235.5792,173.238 234.3762,174.747 232.3702,175.605 C230.7622,176.294 229.0722,176.158 227.4012,175.949 C219.8422,175.007 212.2612,174.86 204.6502,175.073 C192.7932,175.406 181.3262,177.708 170.1282,181.517 C169.2972,181.8 168.4592,182.1 167.5992,182.255 C164.8272,182.757 162.2752,181.399 161.3282,178.986 C160.3702,176.543 161.3012,173.864 163.6612,172.306 C164.7412,171.594 165.9712,171.226 167.1792,170.805 C181.2992,165.887 195.8552,163.703 210.7862,163.851" id="Fill-565" fill="#4D4D4D"></path>
            <path d="M321.3038,237.449942 C325.5528,237.4751 329.2688,240.4291 330.5658,244.8131 C331.8768,249.2451 330.2618,253.9191 326.6318,256.1981 C323.2018,258.3521 318.6348,257.8301 315.6178,254.8481 C312.5728,251.8381 311.7098,248.1141 312.6418,244.0471 C313.5368,240.1361 317.2668,237.4261 321.3038,237.449942" id="Fill-567" fill="#4D4D4D"></path>
        </g>
    </g>
</svg>