<?xml version="1.0" encoding="UTF-8"?>
<svg width="500px" height="500px" viewBox="0 0 500 500" version="1.1" xmlns="http://www.w3.org/2000/svg" xmlns:xlink="http://www.w3.org/1999/xlink">
    <title>home-fast</title>
    <defs>
        <polygon id="path-1" points="0.0293478261 0.118565217 1.20326087 0.118565217 1.20326087 1.14585652 0.0293478261 1.14585652"></polygon>
    </defs>
    <g id="home-fast" stroke="none" stroke-width="1" fill="none" fill-rule="evenodd">
        <circle id="Oval" fill="#FEF0FA" cx="250" cy="250" r="173"></circle>
        <g id="Group-78" transform="translate(11.000000, 89.000000)">
            <path d="M89.820313,265.800148 C88.2519652,265.957452 87.5781391,264.834017 87.2377043,263.676539 C86.0297478,259.572539 87.3304435,256.035539 91.6199217,254.765365 C94.1825739,254.005843 96.9506609,253.538626 99.6119217,253.596148 C110.679574,253.832104 121.712009,252.625322 132.774965,252.955191 C134.650878,253.010365 136.546748,253.123061 138.405052,252.934061 C147.477052,252.009017 156.601878,252.952843 165.645704,252.275496 C173.809096,251.662713 181.943139,252.050104 190.086574,251.861104 C194.971226,251.747235 198.279313,255.931061 197.279139,260.685409 C196.735617,263.273887 193.386443,265.654583 190.375357,265.95393 C181.677835,266.819104 172.935704,265.998539 164.259313,266.593713 C155.445574,267.198278 146.62127,266.471626 137.859183,267.164235 C129.604226,267.818104 121.356313,267.09967 113.144791,267.706583 C107.900922,268.0928 102.675835,268.11393 97.4378348,268.177322 C95.2625739,268.204322 93.196487,267.607974 91.1210087,267.062104 C90.4237043,266.878974 89.9341826,266.5268 89.8015304,265.782539 C91.9756174,265.162713 94.0194,266.261496 96.1770522,266.23567 C105.277226,266.133539 114.385617,266.444626 123.4764,266.137061 C140.716487,265.557148 157.960096,265.271887 175.206052,264.952583 C180.063704,264.862191 184.947183,264.686104 189.80953,264.394974 C193.073009,264.19893 195.510052,261.652713 195.507704,258.845887 C195.505357,255.995626 193.098835,253.661887 189.804835,253.330843 C188.776487,253.226365 187.741096,253.306191 186.711574,253.252191 C179.763183,252.880061 172.858226,253.967104 165.913357,253.835626 C152.972139,253.591452 140.032096,254.197191 127.110835,254.588104 C117.001096,254.893322 106.847922,254.278191 96.7640087,255.503757 C95.4621391,255.661061 94.1438348,255.682191 92.8783565,256.075452 C89.0208783,257.272843 87.7730087,259.898887 89.2838348,263.653061 C89.5632261,264.346843 89.9482696,265.007757 89.820313,265.800148" id="Fill-1" fill="#4D4D4D"></path>
            <path d="M60.9058957,182.528039 C58.4993739,182.528039 56.6187652,182.593778 54.7452,182.512778 C51.3068087,182.366039 48.2088522,180.085126 47.2615043,177.105735 C46.1404174,173.5793 48.0785478,169.580952 51.5662435,168.529126 C52.8857217,168.13117 54.246287,167.751996 55.7007652,167.851778 C57.3829826,167.966822 59.0828087,167.8013 60.7673739,167.890517 C67.8026348,168.26617 74.8026783,167.406865 81.8144609,167.166213 C85.7247652,167.033561 89.724287,167.284778 93.557113,166.63443 C97.743287,165.924213 102.002243,166.838691 106.107417,165.64717 C106.195461,165.622517 106.295243,165.628387 106.387983,165.634257 C111.82907,166.012257 117.214983,165.001517 122.651374,165.0203 C128.823809,165.042604 134.977461,164.28543 141.168678,164.4263 C143.079809,164.469735 144.914635,163.894517 146.9502,164.387561 C151.504983,165.489865 152.880809,168.283778 152.750504,171.792604 C152.606113,175.655952 149.745287,178.49917 145.772765,178.513257 C140.992591,178.530865 136.274635,179.338517 131.480374,179.205865 C125.779852,179.046213 120.07933,179.631996 114.377635,179.833909 C107.762635,180.067517 101.142939,180.549996 94.5255913,180.919778 C86.1250696,181.38817 77.7304174,181.804909 69.3216783,182.086648 C66.3563739,182.185257 63.3652435,182.465822 60.9058957,182.528039" id="Fill-3" fill="#4D4D4D"></path>
            <path d="M22.6287,216.900565 C26.3805261,216.899391 30.1558304,217.163522 33.8806565,216.847739 C44.1735261,215.980217 54.501613,216.899391 64.761613,216.206783 C72.8240478,215.662087 80.8594826,216.053 88.900787,215.770087 C91.6019609,215.675 94.2972652,215.937957 97.0019609,215.289957 C99.4495696,214.703 101.8737,215.530609 104.068917,216.577739 C106.969657,217.959435 108.309091,223.146957 106.535309,225.986652 C105.1407,228.219435 103.108657,229.906348 100.360526,229.818304 C92.8627435,229.578826 85.4142652,230.738652 77.9164826,230.451043 C74.1705261,230.306652 70.4022652,230.240913 66.6633522,230.462783 C55.4337,231.129565 44.1747,230.521478 32.9697,231.135435 C24.4400478,231.603826 15.9362217,231.336174 7.42417826,231.52987 C2.50665652,231.642565 -0.871865217,227.551478 0.198743478,222.788913 C0.766917391,220.254435 2.62874348,218.472435 5.01883043,217.696478 C6.65056957,217.167043 8.43022174,216.831304 10.2474391,216.873565 C14.3725696,216.96513 18.5012217,216.901739 22.6287,216.900565" id="Fill-5" fill="#4D4D4D"></path>
            <path d="M138.602504,123.926417 C142.260417,123.92407 145.942983,124.199939 149.568026,123.860678 C155.268548,123.328896 160.962026,123.374678 166.663722,123.368797 C168.547852,123.366461 170.331026,123.7292 172.001504,124.709417 C174.491374,126.169765 175.370635,128.604461 175.18633,131.113113 C174.979722,133.930504 173.337417,136.265417 170.497722,137.247983 C169.025635,137.756287 167.461983,138.208243 165.827896,138.025113 C165.272635,137.962896 164.703287,138.019243 164.140983,138.014548 C149.063243,137.874852 134.000765,138.987722 118.91833,138.593287 C118.271504,138.575678 117.589461,138.614417 116.977852,138.804591 C114.298983,139.634548 111.79033,138.966591 109.342722,137.96407 C106.305809,136.720896 105.466461,134.209896 105.459396,131.151852 C105.452374,128.180678 107.192113,126.512548 109.558722,125.32807 C110.537765,124.838548 111.62833,124.4312 112.791678,124.492243 C119.910287,124.872591 126.984287,123.62707 134.101722,123.919374 C135.599635,123.980417 137.102243,123.927591 138.602504,123.926417" id="Fill-7" fill="#4D4D4D"></path>
            <path d="M139.0662,227.609 C136.211243,227.609 134.237896,227.673565 132.270417,227.597261 C125.04733,227.31787 123.9462,220.694652 126.080374,216.845391 C127.161548,214.894348 128.917722,213.894174 131.01433,213.549043 C134.525504,212.971478 138.074243,212.890478 141.634722,212.939783 C149.123113,213.044261 156.585678,212.227217 164.084635,212.274174 C166.839809,212.290609 169.654852,211.802261 172.458157,211.83513 C176.773461,211.885609 179.769287,214.497565 180.351548,218.67787 C180.649722,220.809696 178.716287,224.171783 176.404852,225.366826 C175.243852,225.965522 174.001852,226.529 172.667113,226.459739 C165.915939,226.112261 159.211722,227.397696 152.468765,227.027913 C147.680374,226.763783 142.97533,228.195957 139.0662,227.609" id="Fill-9" fill="#4D4D4D"></path>
            <path d="M188.290957,300.293117 C186.990261,300.148726 185.386696,300.572509 183.830087,300.005509 C180.28487,298.710683 178.972435,296.581204 179.316391,292.317552 C179.587565,288.956639 181.427087,287.071335 185.007522,286.355248 C187.167522,285.922074 189.42613,285.745987 191.65187,285.544074 C194.695826,285.26703 197.784391,285.32103 200.802522,284.63077 C202.794652,284.175291 204.88187,284.366639 206.920957,284.177639 C210.063522,283.887683 213.207261,283.271378 216.386217,283.400509 C221.930609,283.6259 225.358435,288.483552 223.198435,293.28603 C221.827304,296.33703 219.161348,297.894813 215.819217,298.023943 C210.419217,298.234074 205.077913,299.092204 199.665,299.277683 C195.97187,299.404465 192.308087,300.376465 188.290957,300.293117" id="Fill-11" fill="#4D4D4D"></path>
            <path d="M317.392748,60.7655522 C318.214487,61.9864217 317.979704,62.590987 316.419574,62.6907696 C312.861443,62.914987 309.29627,63.1122043 305.755748,63.5207261 C283.191965,66.1244652 262.248183,73.2336826 243.396313,86.106813 C242.939661,86.4190739 242.419617,86.6350739 241.928922,86.8968565 C242.666139,84.8084652 244.75453,84.2379435 246.338139,83.2295522 C250.189748,80.7749 254.117661,78.3883348 258.21227,76.3762478 C262.4724,74.281987 266.915661,72.5246391 271.367139,70.8588565 C278.621922,68.1447696 286.050443,65.9425087 293.669139,64.5302913 C298.776835,63.5841174 303.879835,62.5463783 309.129574,62.4454217 C311.435139,62.400813 313.737183,61.8138565 316.080313,61.9277261 C316.878574,61.9664652 317.269487,61.5074652 317.392748,60.7655522" id="Fill-13" fill="#4D4D4D"></path>
            <path d="M241.985387,86.8518957 C241.578039,87.2252 241.203561,87.6454609 240.759822,87.968287 C231.606822,94.6384609 223.465735,102.358113 216.471561,111.278678 C216.189822,111.636722 215.816517,111.923157 215.485474,112.243635 C215.405648,111.769374 215.431474,111.3092 215.758996,110.924157 C217.859126,108.4472 219.715083,105.78007 222.001865,103.441635 C227.210517,98.1144174 232.609343,93.0102435 238.619778,88.589287 C239.634039,87.8438522 240.51917,86.7603304 241.985387,86.8518957" id="Fill-15" fill="#4D4D4D"></path>
            <path d="M316.2726,48.6893913 C316.986339,52.6959565 317.102557,56.7576957 317.405426,60.8018261 C316.381774,58.7146087 316.570774,56.402 316.276122,54.1938696 C316.036643,52.3907391 316.256165,50.5265652 316.2726,48.6893913" id="Fill-17" fill="#4D4D4D"></path>
            <path d="M348.24283,61.9164565 C348.058526,58.7421957 347.873048,55.5667609 347.68757,52.3925 C348.483483,54.080587 349.115048,59.9419348 348.651352,61.5548913 C348.609091,61.7028043 348.3837,61.7967174 348.24283,61.9164565" id="Fill-19" fill="#4D4D4D"></path>
            <path d="M347.7195,52.4483783 C347.048022,50.9915522 347.109065,49.4361174 347.113761,47.8877261 C348.402717,49.2635522 347.5575,50.9222913 347.7195,52.4483783" id="Fill-21" fill="#4D4D4D"></path>
            <path d="M307.27573,37.5704391 C307.732383,37.6502652 308.17847,37.7523957 308.453165,38.1820478 C307.916687,38.2560043 307.44947,38.1949609 307.27573,37.5704391" id="Fill-23" fill="#4D4D4D"></path>
            <path d="M305.617461,36.4068565 C306.077635,36.4925522 306.490852,36.6498565 306.691591,37.1229435 C306.172722,37.1252913 305.714896,37.0349 305.617461,36.4068565" id="Fill-25" fill="#4D4D4D"></path>
            <path d="M306.666352,37.1061565 C307.012657,37.126113 307.245091,37.2928087 307.346048,37.6308957 C307.011483,37.5968522 306.787265,37.4195913 306.666352,37.1061565" id="Fill-27" fill="#4D4D4D"></path>
            <path d="M304.984017,35.959713 C305.322104,35.986713 305.57567,36.1299304 305.688365,36.4703652 C305.337365,36.4609739 305.106104,36.284887 304.984017,35.959713" id="Fill-29" fill="#4D4D4D"></path>
            <g id="Group-33" transform="translate(352.173913, 0.055348)">
                <mask id="mask-2" fill="white">
                    <use xlink:href="#path-1"></use>
                </mask>
                <g id="Clip-32"></g>
                <path d="M0.585195652,0.54363913 C0.603978261,0.557726087 0.626282609,0.562421739 0.645065217,0.57416087 L0.647413043,0.57416087 L0.585195652,0.54363913 Z" id="Fill-31" fill="#4D4D4D" mask="url(#mask-2)"></path>
            </g>
            <path d="M328.636017,1.70070435 C328.645409,1.6960087 328.6548,1.69483478 328.664191,1.69013913 C328.666539,1.6877913 328.670061,1.6877913 328.673583,1.68544348 L328.636017,1.70070435 Z" id="Fill-34" fill="#4D4D4D"></path>
            <path d="M350.343078,26.3632087 C349.889948,27.3340348 349.400426,28.0677304 348.127904,28.1698609 C337.106035,29.0526435 326.088861,30.0011652 313.888383,31.029513 C311.729557,31.2901217 309.515557,29.6478174 307.964817,26.8938174 C306.7146,24.6751217 306.019643,22.2345565 305.297687,19.8104261 C304.709557,17.8359043 304.096774,15.8696 303.508643,13.8962522 C302.981557,12.1259913 302.972165,12.0449913 304.721296,11.6669913 C307.833339,10.9978609 310.957122,10.3709913 314.094991,9.8392087 C324.354991,8.09946957 334.647861,6.6086 345.051078,6.0146 C347.018557,5.90073043 348.981339,5.88077391 350.949991,6.0592087 C352.029991,6.15781739 352.713209,6.54638261 352.866991,7.68273043 C352.942122,8.23916522 353.210948,8.78855652 353.188643,9.33442609 C352.955035,15.127687 352.871687,20.9502957 350.343078,26.3632087 M360.129991,9.82629565 C359.8236,9.25107826 359.859991,8.67351304 360.119426,8.0936 C359.565339,7.15094783 360.299035,5.95942609 359.538339,5.05551304 L359.562991,5.1059913 C359.307078,4.75616522 359.389252,4.22907826 358.973687,3.9626 C358.664948,3.15964348 358.0686,2.63725217 357.31847,2.2616 C356.710383,1.59833913 355.849904,1.45394783 355.059861,1.16633913 C354.442383,0.472556522 353.502078,1.06068696 352.818861,0.62986087 C349.639904,-0.0240086957 346.455078,0.0933826087 343.26673,0.555904348 C342.992035,0.750773913 342.713817,0.781295652 342.428557,0.57586087 C339.739122,1.30133913 336.929948,0.27886087 334.24873,1.13112174 L334.08673,1.25673043 L333.915339,1.14755652 C332.215513,1.81433913 330.348991,0.890469565 328.664426,1.68990435 C327.599687,2.35551304 326.28373,1.49503478 325.234252,2.25338261 L325.10747,2.36490435 L324.963078,2.27686087 C323.81147,2.8462087 322.436817,2.07025217 321.32747,2.88377391 L321.387339,2.84973043 C320.321426,3.46486087 319.006643,2.60438261 317.9736,3.4132087 C316.901817,4.01425217 315.594078,3.17842609 314.552817,3.96729565 L314.596252,3.94851304 C313.732252,4.57655652 312.571252,3.76186087 311.737774,4.54016522 L311.785904,4.51903478 C310.918383,5.13651304 309.753861,4.32064348 308.92273,5.11068696 L308.974383,5.0872087 C308.109209,5.70586087 306.931774,4.86064348 306.11473,5.69764348 C305.4186,6.12729565 304.488861,5.56264348 303.84673,6.21533913 L303.88547,6.19890435 C303.030861,6.8246 301.885122,6.04042609 301.051643,6.7706 C299.02547,7.11573043 296.957035,7.38925217 296.008513,9.63612174 L296.046078,9.57155652 C295.47673,11.0530348 295.340557,12.5286435 296.107122,13.9901652 L296.060165,13.9162087 C296.360687,14.4820348 296.006165,15.2274696 296.559078,15.7228609 L296.54147,15.6817739 C297.209426,16.5082087 296.293774,17.7138174 297.195339,18.4839043 C297.48647,19.0133391 297.117861,19.7540783 297.71773,20.1837304 C298.325817,22.8602522 298.976165,25.522687 299.977513,28.0853391 C300.324991,28.6018609 299.951687,29.3461217 300.503426,29.7992522 C300.944817,30.9837304 301.326339,32.1975565 302.189165,33.1719043 C302.871209,34.3552087 303.797426,35.2919913 304.987774,35.9658174 C305.1486,36.214687 305.324687,36.4436 305.652209,36.4635565 C305.827122,36.9272522 306.370643,36.8380348 306.671165,37.1115565 C306.837861,37.3392957 307.018643,37.5459043 307.3086,37.6128174 C307.544557,38.050687 308.030557,38.0049043 308.407383,38.1680783 C308.995513,38.9569478 310.012122,38.2267739 310.663643,38.7890783 L310.614339,38.7656 C311.274078,39.4699478 312.240209,38.8548174 312.958643,39.3079478 L312.902296,39.2692087 C314.0586,39.804513 315.041165,40.5417304 315.693861,41.6639913 L315.818296,41.7896 L315.73847,41.9469043 C315.729078,42.2509478 315.875817,42.3413391 316.154035,42.2474261 C317.629643,44.9990783 318.849339,47.905687 318.927991,51.0153826 C318.998426,53.8327739 319.661687,56.5820783 319.5936,59.3889043 C319.529035,62.0513391 318.07573,63.6607739 315.463774,63.5774261 C313.625426,63.5187304 312.4116,64.3299043 311.383252,65.5648609 C310.594383,66.508687 309.701035,66.939513 308.498948,67.0310783 C305.507817,67.2564696 302.654035,68.2073391 299.745078,68.8612087 C299.058339,69.0161652 298.274165,69.2638609 297.875035,70.3379913 C299.959904,71.9932087 302.514339,71.8781652 304.887991,71.6422087 C305.818904,71.5506435 306.6606,71.0939913 307.74647,71.3651652 C308.804165,71.6304696 310.005078,71.5940783 311.093296,71.4062522 C316.597774,70.4542087 322.189122,70.6150348 327.632557,71.152687 C333.16873,71.6997304 338.753035,72.1822087 344.256339,73.1694696 C345.9456,73.4723391 347.023252,72.2232957 348.190122,71.3393391 C349.112817,70.6373391 349.008339,69.7533826 348.293426,68.8870348 C348.028122,68.5642087 348.043383,68.1427739 348.416687,67.911513 C349.631687,67.155513 349.153904,66.6777304 348.400252,65.7867304 C347.4036,64.6104696 346.882383,63.0609043 345.5136,62.1252957 C344.936035,61.729687 344.963035,60.973687 344.963035,60.3057304 C344.961861,58.9029043 344.5956,57.4942087 344.570948,56.1489043 C344.523991,53.5733391 343.740991,51.0811217 344.266904,48.391687 C344.742339,45.9558174 344.387817,43.3614696 345.427904,40.9643391 C345.634513,40.4853826 345.542948,39.8479478 345.495991,39.292687 C345.287035,36.7910783 345.275296,36.7910783 347.881383,36.0679478 C348.596296,36.3144696 349.312383,36.5703826 349.9416,35.9047739 C351.829252,35.349513 353.631209,34.648687 354.940122,33.0768174 C355.628035,32.7633826 355.763035,31.9991652 356.220861,31.4979043 L356.212643,31.5096435 C356.426296,31.3065565 356.683383,31.1316435 356.672817,30.786513 L356.6106,30.8639913 C358.687252,27.1215565 358.952557,22.9365565 359.560643,18.8360783 L359.454991,18.7081217 L359.54773,18.5696 C360.422296,15.7005565 359.405687,12.7047304 360.129991,9.82629565" id="Fill-36" fill="#4D4D4D"></path>
            <path d="M299.98397,28.1034174 C299.981622,28.0975478 299.979274,28.0905043 299.976926,28.0846348 C299.968709,28.0728957 299.965187,28.0576348 299.955796,28.0447217 L299.98397,28.1034174 Z" id="Fill-38" fill="#4D4D4D"></path>
            <path d="M339.724565,62.6066 C335.629957,61.6252087 331.709087,62.1980783 327.792913,62.1898609 C326.589652,62.1863391 326.340783,61.7461217 326.188174,60.5663391 C325.374652,54.2518609 324.935609,47.8669478 323.024478,41.7367739 C322.693435,40.6708609 322.315435,39.6190348 321.957391,38.5554696 C322.708696,37.9567739 323.586783,38.1105565 324.388565,38.0448174 C328.594696,37.7032087 332.80787,37.4543391 337.011652,37.0869043 C338.382783,36.9659913 338.733783,37.3956435 338.776043,38.7656 C339.021391,46.5380783 339.381783,54.3070348 339.724565,62.6066" id="Fill-40" fill="#FEF0FA"></path>
            <path d="M89.820313,265.800148 C89.4622696,265.372843 89.0795739,264.961974 88.7508783,264.512365 C86.5321826,261.47193 87.391487,257.682539 90.7148348,255.893496 C92.1470087,255.121061 93.7294435,254.846365 95.3247913,254.726626 C97.9461391,254.530583 100.571009,254.319278 103.197052,254.258235 C131.359226,253.61493 159.522574,252.9998 187.685922,252.3788 C189.186183,252.34593 190.684096,252.293104 192.1374,252.83193 C194.799835,253.820365 196.512574,256.093061 196.555615,258.7778 C196.597096,261.421452 194.9184,263.802148 192.304096,264.84693 C191.14427,265.309452 189.937487,265.402191 188.711922,265.429191 C159.79727,266.056061 130.882617,266.687626 101.969139,267.301583 C100.187139,267.340322 98.4016174,267.218235 96.6184435,267.220583 C94.2389217,267.224104 91.954487,266.828496 89.8015304,265.782539 L89.820313,265.800148 Z" id="Fill-42" fill="#4D4D4D"></path>
            <path d="M98.5261696,180.096513 C85.5908217,180.621252 71.6318217,181.702426 57.628213,181.612035 C56.2218652,181.602643 54.7967348,181.614383 53.416213,181.392513 C50.1304304,180.861904 47.936387,178.345035 47.8874339,175.241209 C47.8401261,172.104513 49.907387,169.582948 53.200213,168.919687 C54.3858652,168.680209 55.6231696,168.606252 56.8369957,168.606252 C74.0336478,168.598035 91.1763,167.325513 108.337735,166.4486 C120.15317,165.845209 131.980343,165.431991 143.801648,164.956557 C144.733735,164.918991 145.692822,164.95773 146.606126,165.134991 C149.585517,165.712557 151.676257,168.08973 151.838257,170.968165 C152.003778,173.902948 150.260517,176.415122 147.353909,177.396513 C145.820778,177.915383 144.220735,177.935339 142.621865,177.999904 C128.266083,178.578643 113.906778,179.065817 98.5261696,180.096513" id="Fill-44" fill="#4D4D4D"></path>
            <path d="M53.9650174,217.023239 C68.4170609,216.754413 82.8691043,216.484413 97.3211478,216.224978 C98.4445826,216.206196 99.5821043,216.16863 100.6938,216.304804 C103.907974,216.696891 106.245235,219.15037 106.470626,222.258891 C106.683104,225.201891 104.74967,227.887804 101.763235,228.825761 C100.673843,229.16737 99.5562783,229.227239 98.4258,229.249543 C68.6788435,229.823587 38.930713,230.4035 9.18375652,230.982239 C7.96288696,231.005717 6.75023478,231.028022 5.56106087,230.638283 C2.79062609,229.729674 0.945234783,227.368935 0.881843478,224.591457 C0.818452174,221.743543 2.71549565,219.133935 5.58453913,218.28637 C6.46849565,218.025761 7.42993043,217.942413 8.35849565,217.92363 C23.5606696,217.613717 38.7628435,217.328457 53.9650174,217.037326 C53.9650174,217.03263 53.9650174,217.027935 53.9650174,217.023239" id="Fill-46" fill="#4D4D4D"></path>
            <path d="M139.752939,137.693483 C131.683461,137.8367 123.613983,137.990483 115.544504,138.11257 C114.235591,138.1337 112.899678,138.158352 111.617765,137.932961 C108.525678,137.389439 106.352765,134.880787 106.22833,131.920178 C106.10507,128.968961 108.090157,126.395743 111.149374,125.517657 C112.337374,125.177222 113.5512,125.126743 114.773243,125.102091 C131.567243,124.773396 148.362417,124.442352 165.157591,124.105439 C166.474722,124.078439 167.784809,124.098396 169.074939,124.41183 C172.169374,125.165483 174.203765,127.641265 174.189751,130.640613 C174.175591,133.60357 172.086026,136.173265 169.00333,136.818917 C167.728461,137.084222 166.394896,137.132352 165.085983,137.1617 C156.642026,137.347178 148.196896,137.498613 139.752939,137.662961 C139.752939,137.672352 139.752939,137.682917 139.752939,137.693483" id="Fill-48" fill="#4D4D4D"></path>
            <path d="M155.881096,213.188535 C158.96027,213.080535 164.960139,212.855143 170.962357,212.676709 C171.984835,212.646187 173.035487,212.714274 174.036835,212.917361 C177.02327,213.519578 179.088183,215.885013 179.253704,218.757578 C179.423922,221.713491 177.481096,224.42523 174.450052,225.228187 C173.195139,225.560404 171.859226,225.67897 170.553835,225.7271 C158.646835,226.172013 146.738661,226.582883 134.831661,226.994926 C133.426487,227.043057 132.021313,227.075926 130.647835,226.633361 C127.831617,225.728274 125.9874,223.389839 125.950507,220.6241 C125.916965,217.995709 127.616791,215.624404 130.244009,214.593709 C131.4954,214.104187 132.800791,214.039622 134.115574,213.991491 C140.397183,213.761404 146.678791,213.52897 155.881096,213.188535" id="Fill-50" fill="#4D4D4D"></path>
            <path d="M187.640843,299.755465 C187.265191,299.754291 186.888365,299.770726 186.515061,299.751943 C182.932278,299.572335 180.293322,297.244465 179.948191,293.969248 C179.611278,290.758596 181.772452,287.817943 185.262496,287.039639 C187.082061,286.632291 188.975583,286.523117 190.843278,286.355248 C198.599322,285.657943 206.360061,284.999378 214.118452,284.304422 C215.345191,284.194074 216.555496,284.177639 217.757583,284.452335 C220.49867,285.07803 222.466148,287.213378 222.765496,289.86877 C223.085974,292.696726 221.610365,295.215943 218.942061,296.453248 C217.98767,296.894639 216.973409,297.110639 215.952104,297.204552 C206.516191,298.073248 197.07793,298.911422 187.640843,299.755465" id="Fill-52" fill="#4D4D4D"></path>
            <path d="M215.531609,112.187287 C215.245174,113.221504 214.446913,113.925852 213.857609,114.75933 C196.348696,139.564113 189.376826,167.099417 193.226087,197.155113 C197.608304,231.368809 213.963261,259.370157 239.478261,282.045461 C263.034,302.979852 290.731304,315.433896 321.892826,320.124852 C350.042087,324.362678 377.326174,321.357461 403.463348,309.837852 C427.961739,299.041374 447.674087,282.550243 461.040261,259.187026 C478.106609,229.357896 481.083652,197.698635 470.80487,165.117852 C459.541174,129.415635 436.707391,102.707939 404.511652,83.9652435 C387.743478,74.2029826 369.647609,67.799287 350.607913,64.073287 C350.056174,63.964113 349.505609,63.8420261 348.952696,63.7340261 C347.695435,63.4863304 347.838652,62.7256348 348.265957,61.8604609 C348.406826,62.5800696 348.789522,62.9263739 349.569,63.0754609 C361.068652,65.2800696 372.27013,68.4895478 383.164043,72.8224609 C388.483043,74.9378522 393.728087,77.1917652 398.777087,79.8694609 C407.712913,84.6073739 416.229652,89.9780261 424.198174,96.2678522 C431.083174,101.701896 437.152304,107.960026 443.093478,114.308548 C448.708304,120.308417 453.382826,127.133548 457.680522,134.165287 C460.467391,138.722417 463.024174,143.414548 465.310957,148.247548 C469.571087,157.250287 472.581,166.658026 474.620087,176.4062 C475.403087,180.148635 476.383304,183.89107 476.649783,187.672243 C477.155739,194.831939 478.120696,202.011591 476.917435,209.21707 C476.488957,211.786765 476.713174,214.413983 476.356304,217.034157 C475.522826,223.160809 474.12587,229.145417 472.495304,235.076026 C470.727391,241.500852 468.167087,247.65333 465.187696,253.600374 C461.323174,261.314157 456.643957,268.516113 451.047913,275.115852 C448.142478,278.54133 445.390826,282.112374 442.06513,285.134026 C437.365957,289.403548 432.612783,293.604983 427.352478,297.219461 C421.791652,301.041722 416.122826,304.671461 410.099478,307.697809 C400.869,312.333591 391.180696,315.743809 381.182478,318.359287 C375.662739,319.802026 370.072565,320.798678 364.450696,321.575809 C361.513565,321.981983 358.470783,322.040678 355.537174,322.40107 C350.281565,323.047896 345.043565,322.903504 339.820826,322.753243 C334.809391,322.607678 329.801478,322.01133 324.805304,321.350417 C320.082652,320.725896 315.395217,319.9922 310.766478,318.907504 C307.133217,318.056417 303.504652,317.16307 299.918348,316.139417 C291.264261,313.669504 282.880174,310.437722 274.775478,306.55207 C269.463522,304.004678 264.391043,300.975983 259.359652,297.887417 C253.453696,294.263548 247.78487,290.299243 242.48113,285.865374 C236.224174,280.636765 230.489609,274.855243 225.072,268.736809 C222.207652,265.505026 219.649696,262.063113 217.095261,258.614157 C213.701478,254.033548 210.72913,249.168852 207.888261,244.223157 C201.779217,233.589852 197.473304,222.242809 194.728696,210.333461 C193.560652,205.268026 192.468913,200.162678 192.114391,194.905896 C191.938304,192.300983 191.784522,189.692548 191.696478,187.081765 C191.65187,185.776374 191.809174,184.460417 191.27387,183.192591 C191.102478,182.787591 191.05787,182.226461 191.189348,181.809722 C192.081522,178.955939 191.440565,176.019983 191.72113,173.14507 C192.074478,169.531765 192.549913,165.926678 193.086391,162.336852 C193.888174,156.973243 195.192391,151.704722 196.886348,146.572374 C198.820957,140.709852 200.971565,134.9072 203.879348,129.427374 C206.774217,123.9722 209.921478,118.6802 213.667435,113.757983 C214.183957,113.079461 214.592478,112.336374 215.531609,112.187287" id="Fill-54" fill="#4D4D4D"></path>
            <path d="M464.806996,205.054843 C463.238648,239.860191 447.782909,267.389626 419.832039,287.914322 C403.384343,299.992713 384.737909,306.833104 364.636996,309.860626 C357.570039,310.925365 350.4573,311.439539 343.247126,311.533452 C296.42443,310.041409 257.641865,291.916191 228.140257,255.146887 C214.338561,237.946713 205.753735,218.215583 203.165257,196.255191 C198.9603,160.57293 210.045561,130.061757 235.904517,105.206496 C253.583648,88.2129304 275.01343,78.2370174 299.045778,73.8090174 C307.265517,72.2946696 315.56743,70.9388 323.953865,71.6607565 C343.530039,73.3476696 363.0123,75.6532348 381.203257,83.858887 C411.662778,97.5995391 435.909952,118.233409 451.638039,148.082496 C461.012909,165.873148 465.713257,184.930452 464.806996,205.054843 M476.343039,189.850322 C474.369691,169.157757 467.3133,150.153278 456.217474,132.60093 C447.876822,119.406148 437.571039,107.915887 425.629996,97.9704957 C410.798778,85.6162348 393.919083,76.7895826 375.725778,70.4504522 C367.234865,67.4910174 358.545561,65.2371043 349.738865,63.4316261 C348.838474,63.2473217 347.659865,63.4163652 348.265604,61.8609304 L348.2433,61.9161043 C349.170691,58.6772783 347.796039,55.5711043 347.688039,52.3921478 L347.719735,52.4484957 C347.03417,50.9928435 348.040213,49.3118 347.112822,47.8878435 L347.150387,47.9465391 C347.240778,44.6877565 346.052778,41.5029304 346.592778,38.2183217 C346.975474,37.9612348 346.901517,37.4505826 347.183257,37.1371478 C347.41217,36.9704522 347.594126,36.7614957 347.753778,36.5302348 L347.717387,36.5490174 C347.935735,36.2379304 347.879387,35.9890609 347.545996,35.8047565 C345.3003,35.6145826 344.491474,36.8260609 344.599474,38.8721913 C344.660517,40.010887 344.40343,41.0991043 344.251996,42.2131478 C343.169648,50.1992783 341.995735,58.1948 347.143343,65.4378435 C348.33017,67.1094957 347.97917,69.1509304 347.14217,70.7873652 C346.32043,72.3944522 344.545474,72.1925391 342.871474,72.1021478 C336.029909,71.7300174 329.317474,70.1111913 322.430126,70.1522783 C316.247126,70.1898435 310.082909,70.4351913 303.917517,70.8765826 C302.544039,70.9740174 301.056691,71.0268435 299.737213,70.1569739 C300.144561,69.6251913 300.522561,69.548887 300.875909,69.4361913 C305.268691,68.0333652 310.276604,68.3655826 313.898126,64.7734087 C314.206865,64.4670174 314.785604,64.5174957 315.246952,64.4271043 C319.10443,63.6781478 320.673952,61.8668 320.280691,58.0257565 C319.975474,55.0416696 319.798213,52.0434957 319.442517,49.0605826 C319.178387,46.8336696 318.15943,44.9624522 317.302474,42.9984957 C317.073561,42.4761043 316.756604,41.656713 315.968909,42.5500609 C316.120343,44.5081478 315.5733,46.5073217 316.298778,48.434887 L316.380952,48.5722348 L316.272952,48.6896261 C316.63217,52.7290609 316.584039,56.8060609 317.405778,60.8020609 L317.392865,60.7656696 C318.046735,62.3880174 316.843474,62.1555826 315.932517,62.2389304 C309.972561,62.7777565 303.982083,63.0489304 298.079648,64.1007565 C284.943561,66.4403652 272.224213,70.1558 260.191604,75.9854522 C253.794952,79.0834087 247.513343,82.4173217 241.929039,86.8969739 L241.985387,86.8523652 C238.193648,89.0863217 234.8973,91.9659304 231.60917,94.8502348 C225.637474,100.088235 219.943996,105.589191 215.491343,112.237061 C212.635213,115.448887 210.280343,119.03167 208.125039,122.717757 C196.8543,142.0028 191.314604,162.755235 191.922691,185.174626 C192.155126,193.750061 193.280909,202.148235 195.20143,210.459539 C198.307604,223.900843 203.578474,236.467583 210.754604,248.251322 C215.632213,256.262104 221.009909,263.923061 227.37017,270.805713 C236.552517,280.739365 246.754996,289.474452 258.249952,296.728061 C274.730517,307.125409 292.390865,314.508148 311.432909,318.639148 C330.875257,322.857017 350.411517,323.593061 370.047561,320.272061 C382.856126,318.106191 395.159909,314.279235 406.923691,308.723104 C420.60917,302.260713 432.956387,293.809713 443.522778,283.022626 C454.227691,272.091148 462.645822,259.5338 468.433213,245.251974 C475.664517,227.413191 478.159083,208.897061 476.343039,189.850322" id="Fill-56" fill="#4D4D4D"></path>
            <path d="M341.528987,198.73473 C340.592204,198.73473 339.641335,198.840383 338.722161,198.712426 C336.931943,198.465904 335.799117,197.625383 335.159335,195.686078 C334.439726,193.509643 334.364596,191.272165 333.836335,189.093383 C331.5789,179.801861 329.646639,170.443426 328.227378,160.984035 C327.990248,159.402774 327.763683,157.819165 328.028987,156.224991 C328.302509,154.590904 329.350813,153.439296 330.685552,153.357122 C332.191683,153.265557 333.124943,154.129557 333.734204,155.416165 C334.345813,156.703948 334.532465,158.104426 334.787204,159.484948 C336.113726,166.672817 337.408552,173.866557 338.777335,181.047383 C339.338465,183.990383 340.021683,186.913426 340.718987,189.828252 C341.224943,191.945991 341.276596,191.934252 343.310987,191.717078 C349.370726,191.073774 355.430465,190.43047 361.490204,189.785991 C361.863509,189.746078 362.235639,189.67447 362.608943,189.6686 C364.905117,189.634557 366.572074,190.95873 366.800987,192.982557 C367.036943,195.045122 365.459204,196.946861 363.121943,197.139383 C355.92703,197.733383 348.726248,198.244035 341.527813,198.786383 C341.528987,198.768774 341.528987,198.752339 341.528987,198.73473" id="Fill-58" fill="#4D4D4D"></path>
            <path d="M331.789148,129.852096 C331.742191,130.428487 331.739843,130.901574 331.660017,131.358226 C331.345409,133.154313 330.09167,134.318835 328.461104,134.364617 C326.827017,134.409226 325.412452,133.338617 325.149496,131.529617 C324.730409,128.65353 324.4428,125.755139 324.213887,122.856748 C324.008452,120.238922 323.960322,117.608183 323.835887,114.984487 C323.781887,113.850487 323.833539,112.720009 324.191583,111.642357 C324.576626,110.481357 325.380757,109.723009 326.649757,109.647878 C327.903496,109.575096 328.83793,110.150313 329.33567,111.300748 C329.591583,111.894748 329.786452,112.541574 329.862757,113.181357 C330.520148,118.770357 330.881713,124.392226 331.789148,129.852096" id="Fill-60" fill="#4D4D4D"></path>
            <path d="M284.566617,144.25777 C284.524357,145.496248 283.95853,146.657248 282.724748,147.341639 C281.409965,148.070639 279.879183,148.169248 278.736965,147.223074 C274.928791,144.071117 270.681574,141.4439 267.27253,137.823552 C265.66427,136.116683 265.629052,133.950813 266.946183,132.503378 C268.293835,131.023074 270.290661,130.910378 272.266357,132.32377 C273.325226,133.080943 274.272574,133.996596 275.259835,134.852378 C277.584183,136.872683 279.809922,139.002161 282.444183,140.649161 C283.849357,141.527248 284.524357,142.805639 284.566617,144.25777" id="Fill-62" fill="#4D4D4D"></path>
            <path d="M248.739378,194.213287 C246.45377,194.052461 244.387683,193.9832 242.341552,193.743722 C240.239074,193.4972 239.080422,192.425417 239.019378,190.921635 C238.958335,189.428417 240.030117,188.167635 241.952987,187.622939 C244.224509,186.980809 246.587596,186.925635 248.920161,186.765983 C251.904248,186.561722 254.861335,185.88907 257.881813,186.237722 C260.500813,186.539417 261.821465,187.323591 262.092639,188.82033 C262.374378,190.385157 261.219248,191.62833 258.742291,192.767026 C255.456509,194.276678 251.942987,193.877548 248.739378,194.213287" id="Fill-64" fill="#4D4D4D"></path>
            <path d="M394.736243,139.022235 C394.662287,140.61993 393.961461,141.987539 392.755852,142.924322 C389.430157,145.509278 386.057504,148.042583 382.6062,150.4538 C381.028461,151.556104 379.282852,151.276713 378.234548,150.142713 C377.133417,148.950017 377.162765,147.102278 378.404765,145.511626 C378.977635,144.779104 379.658504,144.112322 380.368722,143.507757 C382.727113,141.505061 385.118374,139.542278 387.500243,137.570104 C388.532113,136.71667 389.709548,136.123843 391.023157,135.905496 C393.172591,135.546278 394.776157,136.929148 394.736243,139.022235" id="Fill-66" fill="#4D4D4D"></path>
            <path d="M290.900583,239.447913 C290.925235,240.934087 290.387583,242.223043 289.353365,243.245522 C286.625191,245.945522 283.8618,248.611478 281.083148,251.258652 C280.547843,251.76813 279.910409,252.193087 279.262409,252.555826 C278.095539,253.212043 276.898148,253.18387 275.856887,252.305783 C274.734626,251.360783 274.468148,250.142261 274.9788,248.757043 C275.44367,247.493913 276.293583,246.492565 277.182235,245.532304 C279.4068,243.12813 281.816843,240.89887 283.779626,238.250522 C284.721104,236.978 286.114539,236.375783 287.687583,236.333522 C289.621017,236.28187 290.852452,237.516826 290.900583,239.447913" id="Fill-68" fill="#4D4D4D"></path>
            <path d="M398.653474,250.530122 C397.37743,250.43973 396.458257,250.028861 395.64943,249.34447 C392.870778,246.994296 390.082735,244.654687 387.308778,242.298643 C386.595039,241.692904 385.957604,241.010861 385.523257,240.16447 C384.917517,238.985861 384.852952,237.813122 385.74043,236.761296 C386.531648,235.823339 387.5823,235.57447 388.779691,235.842122 C389.704735,236.049904 390.553474,236.430252 391.351735,236.915078 C394.632822,238.909557 397.62043,241.31373 400.528213,243.794209 C402.784474,245.719426 402.447561,248.972339 400.053952,250.112209 C399.559735,250.348165 398.993909,250.431513 398.653474,250.530122" id="Fill-70" fill="#4D4D4D"></path>
            <path d="M414.24797,195.852657 C412.8111,195.877309 411.681796,195.806874 410.60297,195.450004 C409.338665,195.033265 408.538057,194.16457 408.372535,192.815743 C408.211709,191.504483 408.937187,190.369309 410.341187,189.714265 C410.760274,189.518222 411.220448,189.355048 411.675926,189.30457 C415.217622,188.905439 418.760491,188.519222 422.306883,188.169396 C423.646317,188.036743 424.942317,188.329048 426.105665,188.99583 C428.393622,190.308265 428.406535,192.832178 426.132665,194.127004 C425.319143,194.591874 424.42697,194.925265 423.477274,195.013309 C420.300665,195.309135 417.122883,195.592048 414.24797,195.852657" id="Fill-72" fill="#4D4D4D"></path>
            <path d="M345.374609,272.443557 C345.264261,273.007035 345.220826,273.679687 344.997783,274.284252 C344.258217,276.296339 342.048913,276.81873 340.438304,275.397122 C339.706957,274.752643 339.279652,273.907426 339.054261,272.989426 C338.183217,269.440687 337.166609,265.920122 336.982304,262.237557 C336.930652,261.200991 336.889565,260.160904 337.25113,259.174817 C337.726565,257.878817 338.486087,256.82347 340.020391,256.724861 C341.55,256.627426 342.453913,257.527817 343.059652,258.797991 C343.301478,259.303948 343.551522,259.83573 343.633696,260.380426 C344.233565,264.365861 344.79,268.359513 345.374609,272.443557" id="Fill-74" fill="#4D4D4D"></path>
            <path d="M434.441739,204.799165 C432.636261,227.96047 422.632174,247.020122 404.988261,262.013339 C391.318043,273.631557 375.358696,280.410904 357.715957,283.170774 C321.38687,288.851339 282.748696,275.336078 258.091826,248.305557 C245.449957,234.447513 236.684348,218.459991 233.774217,199.794774 C228.553826,166.331209 239.548696,139.07647 266.396087,118.453165 C279.609652,108.303513 294.921,103.030296 311.33113,100.774035 C316.031478,100.127209 320.776435,100.057948 325.494391,99.6881652 C342.099391,98.6809478 357.590348,103.098383 372.560087,109.641774 C395.734304,119.770296 413.352391,135.994948 424.890783,158.576339 C432.298174,173.076513 435.713087,188.50173 434.441739,204.799165 M434.27387,154.813948 C421.700087,130.202861 402.499565,112.522557 377.244,101.483078 C360.928957,94.3527304 344.048087,89.538513 325.951043,90.6361217 C320.809304,91.0411217 315.638217,91.1150783 310.516435,91.8194261 C292.633043,94.2787739 275.94587,100.025078 261.544304,111.086861 C232.285696,133.561426 220.303565,163.263774 225.992348,199.734904 C229.165435,220.075296 238.717565,237.498513 252.494609,252.600904 C279.366652,282.057904 321.474913,296.788165 361.066304,290.596948 C380.293826,287.589383 397.686522,280.200774 412.584652,267.540122 C431.812174,251.199252 442.715478,230.429209 444.682957,205.18773 C446.067,187.426426 442.34687,170.614817 434.27387,154.813948" id="Fill-76" fill="#4D4D4D"></path>
        </g>
    </g>
</svg>